%TF.GenerationSoftware,KiCad,Pcbnew,9.0.1-9.0.1-0~ubuntu22.04.1*%
%TF.CreationDate,2025-06-21T17:42:36+02:00*%
%TF.ProjectId,recorder,7265636f-7264-4657-922e-6b696361645f,rev?*%
%TF.SameCoordinates,Original*%
%TF.FileFunction,Soldermask,Top*%
%TF.FilePolarity,Negative*%
%FSLAX46Y46*%
G04 Gerber Fmt 4.6, Leading zero omitted, Abs format (unit mm)*
G04 Created by KiCad (PCBNEW 9.0.1-9.0.1-0~ubuntu22.04.1) date 2025-06-21 17:42:36*
%MOMM*%
%LPD*%
G01*
G04 APERTURE LIST*
G04 Aperture macros list*
%AMRoundRect*
0 Rectangle with rounded corners*
0 $1 Rounding radius*
0 $2 $3 $4 $5 $6 $7 $8 $9 X,Y pos of 4 corners*
0 Add a 4 corners polygon primitive as box body*
4,1,4,$2,$3,$4,$5,$6,$7,$8,$9,$2,$3,0*
0 Add four circle primitives for the rounded corners*
1,1,$1+$1,$2,$3*
1,1,$1+$1,$4,$5*
1,1,$1+$1,$6,$7*
1,1,$1+$1,$8,$9*
0 Add four rect primitives between the rounded corners*
20,1,$1+$1,$2,$3,$4,$5,0*
20,1,$1+$1,$4,$5,$6,$7,0*
20,1,$1+$1,$6,$7,$8,$9,0*
20,1,$1+$1,$8,$9,$2,$3,0*%
%AMFreePoly0*
4,1,92,0.117526,0.333263,0.309794,0.295018,0.328553,0.289328,0.509665,0.214309,0.526954,0.205068,0.689950,0.096157,0.705104,0.083721,0.843721,-0.054896,0.856157,-0.070050,0.965068,-0.233046,0.974309,-0.250335,1.049328,-0.431447,1.055018,-0.450206,1.093263,-0.642474,1.095185,-0.661983,1.095185,-0.858017,1.093263,-0.877526,1.055018,-1.069794,1.049328,-1.088553,0.974309,-1.269665,
0.965068,-1.286954,0.856157,-1.449950,0.843721,-1.465104,0.705104,-1.603721,0.689950,-1.616157,0.526954,-1.725068,0.509665,-1.734309,0.328553,-1.809328,0.309794,-1.815018,0.117526,-1.853263,0.098017,-1.855185,-0.098017,-1.855185,-0.117526,-1.853263,-0.309794,-1.815018,-0.328553,-1.809328,-0.509665,-1.734309,-0.526954,-1.725068,-0.689950,-1.616157,-0.705104,-1.603721,-0.843721,-1.465104,
-0.856157,-1.449950,-0.965068,-1.286954,-0.974309,-1.269665,-1.049328,-1.088553,-1.055018,-1.069794,-1.093263,-0.877526,-1.095185,-0.858017,-1.095185,-0.694175,-0.500000,-0.694175,-0.500000,-0.825824,-0.465924,-0.952995,-0.400101,-1.067003,-0.307003,-1.160101,-0.192995,-1.225924,-0.065824,-1.260000,0.065824,-1.260000,0.192995,-1.225924,0.307003,-1.160101,0.400101,-1.067003,0.465924,-0.952995,
0.500000,-0.825824,0.500000,-0.694175,0.465924,-0.567004,0.400101,-0.452996,0.307003,-0.359898,0.192995,-0.294075,0.065824,-0.260000,-0.065824,-0.260000,-0.192995,-0.294075,-0.307003,-0.359898,-0.400101,-0.452996,-0.465924,-0.567004,-0.500000,-0.694175,-1.095185,-0.694175,-1.095185,-0.661983,-1.093263,-0.642474,-1.055018,-0.450206,-1.049328,-0.431447,-0.974309,-0.250335,-0.965068,-0.233046,
-0.856157,-0.070050,-0.843721,-0.054896,-0.705104,0.083721,-0.689950,0.096157,-0.526954,0.205068,-0.509665,0.214309,-0.328553,0.289328,-0.309794,0.295018,-0.117526,0.333263,-0.098017,0.335185,0.098017,0.335185,0.117526,0.333263,0.117526,0.333263,$1*%
G04 Aperture macros list end*
%ADD10RoundRect,0.225000X0.225000X0.250000X-0.225000X0.250000X-0.225000X-0.250000X0.225000X-0.250000X0*%
%ADD11RoundRect,0.200000X0.275000X-0.200000X0.275000X0.200000X-0.275000X0.200000X-0.275000X-0.200000X0*%
%ADD12RoundRect,0.090000X0.210000X-0.360000X0.210000X0.360000X-0.210000X0.360000X-0.210000X-0.360000X0*%
%ADD13FreePoly0,90.000000*%
%ADD14RoundRect,0.225000X0.250000X-0.225000X0.250000X0.225000X-0.250000X0.225000X-0.250000X-0.225000X0*%
%ADD15R,1.700000X1.700000*%
%ADD16O,1.700000X1.700000*%
%ADD17RoundRect,0.200000X0.200000X0.275000X-0.200000X0.275000X-0.200000X-0.275000X0.200000X-0.275000X0*%
%ADD18RoundRect,0.200000X-0.275000X0.200000X-0.275000X-0.200000X0.275000X-0.200000X0.275000X0.200000X0*%
%ADD19O,0.264000X0.960000*%
%ADD20O,0.960000X0.264000*%
%ADD21R,1.750000X1.750000*%
%ADD22RoundRect,0.225000X-0.250000X0.225000X-0.250000X-0.225000X0.250000X-0.225000X0.250000X0.225000X0*%
%ADD23RoundRect,0.225000X-0.225000X-0.250000X0.225000X-0.250000X0.225000X0.250000X-0.225000X0.250000X0*%
%ADD24R,0.315831X1.207120*%
%ADD25R,1.207120X0.315831*%
%ADD26R,3.149999X3.149999*%
G04 APERTURE END LIST*
D10*
%TO.C,C13*%
X254390000Y18000000D03*
X252840000Y18000000D03*
%TD*%
D11*
%TO.C,R14*%
X267500000Y12350000D03*
X267500000Y14000000D03*
%TD*%
D12*
%TO.C,U7*%
X403750000Y14350000D03*
X404450000Y14350000D03*
X403750000Y12650000D03*
X404450000Y12650000D03*
D13*
X405170000Y13500000D03*
%TD*%
D12*
%TO.C,U5*%
X244750000Y14350000D03*
X245450000Y14350000D03*
X244750000Y12650000D03*
X245450000Y12650000D03*
D13*
X246170000Y13500000D03*
%TD*%
D14*
%TO.C,C11*%
X261500000Y15950000D03*
X261500000Y17500000D03*
%TD*%
D12*
%TO.C,U4*%
X165250000Y14600000D03*
X165950000Y14600000D03*
X165250000Y12900000D03*
X165950000Y12900000D03*
D13*
X166670000Y13750000D03*
%TD*%
D15*
%TO.C,J1*%
X318438810Y15500000D03*
D16*
X318438810Y12960000D03*
X315898810Y15500000D03*
X315898810Y12960000D03*
X313358810Y15500000D03*
X313358810Y12960000D03*
X310818810Y15500000D03*
X310818810Y12960000D03*
X308278810Y15500000D03*
X308278810Y12960000D03*
X305738810Y15500000D03*
X305738810Y12960000D03*
X303198810Y15500000D03*
X303198810Y12960000D03*
X300658810Y15500000D03*
X300658810Y12960000D03*
X298118810Y15500000D03*
X298118810Y12960000D03*
X295578810Y15500000D03*
X295578810Y12960000D03*
X293038810Y15500000D03*
X293038810Y12960000D03*
X290498810Y15500000D03*
X290498810Y12960000D03*
X287958810Y15500000D03*
X287958810Y12960000D03*
X285418810Y15500000D03*
X285418810Y12960000D03*
X282878810Y15500000D03*
X282878810Y12960000D03*
X280338810Y15500000D03*
X280338810Y12960000D03*
X277798810Y15500000D03*
X277798810Y12960000D03*
X275258810Y15500000D03*
X275258810Y12960000D03*
X272718810Y15500000D03*
X272718810Y12960000D03*
X270178810Y15500000D03*
X270178810Y12960000D03*
%TD*%
D17*
%TO.C,R6*%
X403250000Y17000001D03*
X401600000Y17000001D03*
%TD*%
%TO.C,R8*%
X562261625Y17000001D03*
X560611625Y17000001D03*
%TD*%
D18*
%TO.C,R13*%
X265000000Y9575000D03*
X265000000Y7925000D03*
%TD*%
D17*
%TO.C,R3*%
X164761625Y17250001D03*
X163111625Y17250001D03*
%TD*%
%TO.C,R5*%
X323761625Y17000001D03*
X322111625Y17000001D03*
%TD*%
D19*
%TO.C,U2*%
X262413800Y11265400D03*
X262913800Y11265400D03*
X263413800Y11265400D03*
X263913800Y11265400D03*
D20*
X264648400Y12000000D03*
X264648400Y12500000D03*
X264648400Y13000000D03*
X264648400Y13500000D03*
D19*
X263913800Y14234600D03*
X263413800Y14234600D03*
X262913800Y14234600D03*
X262413800Y14234600D03*
D20*
X261679200Y13500000D03*
X261679200Y13000000D03*
X261679200Y12500000D03*
X261679200Y12000000D03*
D21*
X263163800Y12750000D03*
%TD*%
D22*
%TO.C,C10*%
X260019200Y11775000D03*
X260019200Y10225000D03*
%TD*%
D10*
%TO.C,C14*%
X253840000Y10000000D03*
X252290000Y10000000D03*
%TD*%
D17*
%TO.C,R7*%
X482750000Y16500001D03*
X481100000Y16500001D03*
%TD*%
%TO.C,R1*%
X5750000Y17000000D03*
X4100000Y17000000D03*
%TD*%
D12*
%TO.C,U8*%
X483250000Y13850000D03*
X483950000Y13850000D03*
X483250000Y12150000D03*
X483950000Y12150000D03*
D13*
X484670000Y13000000D03*
%TD*%
D12*
%TO.C,U1*%
X6250000Y14350000D03*
X6950000Y14350000D03*
X6250000Y12650000D03*
X6950000Y12650000D03*
D13*
X7670000Y13500000D03*
%TD*%
D18*
%TO.C,R9*%
X258469200Y14500000D03*
X258469200Y12850000D03*
%TD*%
%TO.C,R12*%
X261500000Y9575000D03*
X261500000Y7925000D03*
%TD*%
D23*
%TO.C,C4*%
X245750000Y17000000D03*
X247300000Y17000000D03*
%TD*%
%TO.C,C12*%
X255290000Y10000000D03*
X256840000Y10000000D03*
%TD*%
D24*
%TO.C,U10*%
X255800000Y16375550D03*
X255149999Y16375550D03*
X254500000Y16375550D03*
X253849999Y16375550D03*
X253200000Y16375550D03*
D25*
X252124450Y15300000D03*
X252124450Y14649999D03*
X252124450Y14000000D03*
X252124450Y13349999D03*
X252124450Y12700000D03*
D24*
X253200000Y11624450D03*
X253849999Y11624450D03*
X254500000Y11624450D03*
X255149999Y11624450D03*
X255800000Y11624450D03*
D25*
X256875550Y12700000D03*
X256875550Y13349999D03*
X256875550Y14000000D03*
X256875550Y14649999D03*
X256875550Y15300000D03*
D26*
X254500000Y14000000D03*
%TD*%
D23*
%TO.C,C2*%
X86761625Y17000001D03*
X88311625Y17000001D03*
%TD*%
D12*
%TO.C,U9*%
X562750000Y14350000D03*
X563450000Y14350000D03*
X562750000Y12650000D03*
X563450000Y12650000D03*
D13*
X564170000Y13500000D03*
%TD*%
D17*
%TO.C,R4*%
X244250000Y17000000D03*
X242600000Y17000000D03*
%TD*%
D12*
%TO.C,U6*%
X324250000Y14350000D03*
X324950000Y14350000D03*
X324250000Y12650000D03*
X324950000Y12650000D03*
D13*
X325670000Y13500000D03*
%TD*%
D23*
%TO.C,C5*%
X325211625Y17000001D03*
X326761625Y17000001D03*
%TD*%
D14*
%TO.C,C9*%
X260019200Y13500000D03*
X260019200Y15050000D03*
%TD*%
D17*
%TO.C,R2*%
X85261625Y17000001D03*
X83611625Y17000001D03*
%TD*%
D23*
%TO.C,C8*%
X563711625Y17000001D03*
X565261625Y17000001D03*
%TD*%
D12*
%TO.C,U3*%
X85750000Y14350000D03*
X86450000Y14350000D03*
X85750000Y12650000D03*
X86450000Y12650000D03*
D13*
X87170000Y13500000D03*
%TD*%
D23*
%TO.C,C6*%
X404711625Y17000001D03*
X406261625Y17000001D03*
%TD*%
%TO.C,C1*%
X7261625Y17000001D03*
X8811625Y17000001D03*
%TD*%
%TO.C,C7*%
X484211625Y16500001D03*
X485761625Y16500001D03*
%TD*%
%TO.C,C3*%
X166261625Y17250001D03*
X167811625Y17250001D03*
%TD*%
M02*
