%TF.GenerationSoftware,KiCad,Pcbnew,9.0.1-9.0.1-0~ubuntu22.04.1*%
%TF.CreationDate,2025-06-21T17:42:36+02:00*%
%TF.ProjectId,recorder,7265636f-7264-4657-922e-6b696361645f,rev?*%
%TF.SameCoordinates,Original*%
%TF.FileFunction,Legend,Top*%
%TF.FilePolarity,Positive*%
%FSLAX46Y46*%
G04 Gerber Fmt 4.6, Leading zero omitted, Abs format (unit mm)*
G04 Created by KiCad (PCBNEW 9.0.1-9.0.1-0~ubuntu22.04.1) date 2025-06-21 17:42:36*
%MOMM*%
%LPD*%
G01*
G04 APERTURE LIST*
G04 Aperture macros list*
%AMRoundRect*
0 Rectangle with rounded corners*
0 $1 Rounding radius*
0 $2 $3 $4 $5 $6 $7 $8 $9 X,Y pos of 4 corners*
0 Add a 4 corners polygon primitive as box body*
4,1,4,$2,$3,$4,$5,$6,$7,$8,$9,$2,$3,0*
0 Add four circle primitives for the rounded corners*
1,1,$1+$1,$2,$3*
1,1,$1+$1,$4,$5*
1,1,$1+$1,$6,$7*
1,1,$1+$1,$8,$9*
0 Add four rect primitives between the rounded corners*
20,1,$1+$1,$2,$3,$4,$5,0*
20,1,$1+$1,$4,$5,$6,$7,0*
20,1,$1+$1,$6,$7,$8,$9,0*
20,1,$1+$1,$8,$9,$2,$3,0*%
%AMFreePoly0*
4,1,92,0.117526,0.333263,0.309794,0.295018,0.328553,0.289328,0.509665,0.214309,0.526954,0.205068,0.689950,0.096157,0.705104,0.083721,0.843721,-0.054896,0.856157,-0.070050,0.965068,-0.233046,0.974309,-0.250335,1.049328,-0.431447,1.055018,-0.450206,1.093263,-0.642474,1.095185,-0.661983,1.095185,-0.858017,1.093263,-0.877526,1.055018,-1.069794,1.049328,-1.088553,0.974309,-1.269665,
0.965068,-1.286954,0.856157,-1.449950,0.843721,-1.465104,0.705104,-1.603721,0.689950,-1.616157,0.526954,-1.725068,0.509665,-1.734309,0.328553,-1.809328,0.309794,-1.815018,0.117526,-1.853263,0.098017,-1.855185,-0.098017,-1.855185,-0.117526,-1.853263,-0.309794,-1.815018,-0.328553,-1.809328,-0.509665,-1.734309,-0.526954,-1.725068,-0.689950,-1.616157,-0.705104,-1.603721,-0.843721,-1.465104,
-0.856157,-1.449950,-0.965068,-1.286954,-0.974309,-1.269665,-1.049328,-1.088553,-1.055018,-1.069794,-1.093263,-0.877526,-1.095185,-0.858017,-1.095185,-0.694175,-0.500000,-0.694175,-0.500000,-0.825824,-0.465924,-0.952995,-0.400101,-1.067003,-0.307003,-1.160101,-0.192995,-1.225924,-0.065824,-1.260000,0.065824,-1.260000,0.192995,-1.225924,0.307003,-1.160101,0.400101,-1.067003,0.465924,-0.952995,
0.500000,-0.825824,0.500000,-0.694175,0.465924,-0.567004,0.400101,-0.452996,0.307003,-0.359898,0.192995,-0.294075,0.065824,-0.260000,-0.065824,-0.260000,-0.192995,-0.294075,-0.307003,-0.359898,-0.400101,-0.452996,-0.465924,-0.567004,-0.500000,-0.694175,-1.095185,-0.694175,-1.095185,-0.661983,-1.093263,-0.642474,-1.055018,-0.450206,-1.049328,-0.431447,-0.974309,-0.250335,-0.965068,-0.233046,
-0.856157,-0.070050,-0.843721,-0.054896,-0.705104,0.083721,-0.689950,0.096157,-0.526954,0.205068,-0.509665,0.214309,-0.328553,0.289328,-0.309794,0.295018,-0.117526,0.333263,-0.098017,0.335185,0.098017,0.335185,0.117526,0.333263,0.117526,0.333263,$1*%
G04 Aperture macros list end*
%ADD10C,0.100000*%
%ADD11C,0.150000*%
%ADD12C,0.120000*%
%ADD13C,0.050000*%
%ADD14C,0.200000*%
%ADD15C,0.250000*%
%ADD16C,4.300000*%
%ADD17RoundRect,0.225000X0.225000X0.250000X-0.225000X0.250000X-0.225000X-0.250000X0.225000X-0.250000X0*%
%ADD18RoundRect,0.200000X0.275000X-0.200000X0.275000X0.200000X-0.275000X0.200000X-0.275000X-0.200000X0*%
%ADD19C,2.200000*%
%ADD20C,0.800000*%
%ADD21RoundRect,0.090000X0.210000X-0.360000X0.210000X0.360000X-0.210000X0.360000X-0.210000X-0.360000X0*%
%ADD22FreePoly0,90.000000*%
%ADD23RoundRect,0.225000X0.250000X-0.225000X0.250000X0.225000X-0.250000X0.225000X-0.250000X-0.225000X0*%
%ADD24R,1.700000X1.700000*%
%ADD25O,1.700000X1.700000*%
%ADD26RoundRect,0.200000X0.200000X0.275000X-0.200000X0.275000X-0.200000X-0.275000X0.200000X-0.275000X0*%
%ADD27RoundRect,0.200000X-0.275000X0.200000X-0.275000X-0.200000X0.275000X-0.200000X0.275000X0.200000X0*%
%ADD28O,0.264000X0.960000*%
%ADD29O,0.960000X0.264000*%
%ADD30R,1.750000X1.750000*%
%ADD31RoundRect,0.225000X-0.250000X0.225000X-0.250000X-0.225000X0.250000X-0.225000X0.250000X0.225000X0*%
%ADD32RoundRect,0.225000X-0.225000X-0.250000X0.225000X-0.250000X0.225000X0.250000X-0.225000X0.250000X0*%
%ADD33R,0.315831X1.207120*%
%ADD34R,1.207120X0.315831*%
%ADD35R,3.149999X3.149999*%
G04 APERTURE END LIST*
D10*
G36*
X5984891Y2840000D02*
G01*
X5984891Y3777649D01*
X5238241Y3777649D01*
X5238241Y2840000D01*
X4989846Y2840000D01*
X4989846Y4817268D01*
X5238241Y4817268D01*
X5238241Y3981592D01*
X5984891Y3981592D01*
X5984891Y4817268D01*
X6233286Y4817268D01*
X6233286Y2840000D01*
X5984891Y2840000D01*
G37*
G36*
X7452692Y4840183D02*
G01*
X7558304Y4815516D01*
X7652061Y4775752D01*
X7735746Y4720915D01*
X7832266Y4627126D01*
X7913426Y4509086D01*
X7979134Y4362733D01*
X8023234Y4207017D01*
X8051136Y4029322D01*
X8060956Y3826497D01*
X8051190Y3627508D01*
X8023340Y3451837D01*
X7979134Y3296613D01*
X7913554Y3150646D01*
X7832405Y3032039D01*
X7735746Y2936965D01*
X7651939Y2881171D01*
X7558146Y2840776D01*
X7452580Y2815743D01*
X7332990Y2807028D01*
X7213175Y2815572D01*
X7107504Y2840091D01*
X7013745Y2879594D01*
X6930111Y2934034D01*
X6833553Y3027367D01*
X6752409Y3144516D01*
X6686723Y3289407D01*
X6642676Y3443763D01*
X6614749Y3620716D01*
X6604902Y3823566D01*
X6866242Y3823566D01*
X6874831Y3619351D01*
X6898250Y3455333D01*
X6933472Y3325010D01*
X6978227Y3222607D01*
X7043307Y3131551D01*
X7122137Y3068579D01*
X7217107Y3030140D01*
X7332990Y3016588D01*
X7452612Y3030428D01*
X7549092Y3069407D01*
X7627722Y3132819D01*
X7691172Y3224072D01*
X7734479Y3326924D01*
X7768601Y3457691D01*
X7791295Y3622082D01*
X7799616Y3826497D01*
X7791321Y4030719D01*
X7768665Y4195473D01*
X7734546Y4327002D01*
X7691172Y4430876D01*
X7627587Y4523243D01*
X7548887Y4587301D01*
X7452449Y4626614D01*
X7332990Y4640559D01*
X7213629Y4626551D01*
X7117192Y4587038D01*
X7038408Y4522584D01*
X6974685Y4429533D01*
X6931268Y4324938D01*
X6897151Y4192846D01*
X6874520Y4027769D01*
X6866242Y3823566D01*
X6604902Y3823566D01*
X6614647Y4022541D01*
X6642480Y4198732D01*
X6686723Y4354917D01*
X6752383Y4501919D01*
X6833542Y4621457D01*
X6930111Y4717373D01*
X7014002Y4773838D01*
X7107839Y4814680D01*
X7213413Y4839973D01*
X7332990Y4848776D01*
X7452692Y4840183D01*
G37*
G36*
X8837526Y4613326D02*
G01*
X8837526Y3921264D01*
X9612997Y3921264D01*
X9612997Y3720252D01*
X8837526Y3720252D01*
X8837526Y2840000D01*
X8590596Y2840000D01*
X8590596Y4817268D01*
X9755146Y4817268D01*
X9724982Y4613326D01*
X8837526Y4613326D01*
G37*
G36*
X11437735Y4817268D02*
G01*
X11549720Y2840000D01*
X11309996Y2840000D01*
X11248203Y3872415D01*
X11237456Y4153783D01*
X11232449Y4414390D01*
X11232449Y4588901D01*
X10899302Y3194641D01*
X10649441Y3194641D01*
X10291870Y4588901D01*
X10296144Y4410848D01*
X10296144Y4143769D01*
X10289061Y3875224D01*
X10235938Y2840000D01*
X10001831Y2840000D01*
X10113817Y4817268D01*
X10461374Y4817268D01*
X10781577Y3463186D01*
X11087369Y4817268D01*
X11437735Y4817268D01*
G37*
G36*
X12245935Y4613326D02*
G01*
X12245935Y3947031D01*
X12978297Y3947031D01*
X12978297Y3741745D01*
X12245935Y3741745D01*
X12245935Y3039547D01*
X13144870Y3039547D01*
X13144870Y2840000D01*
X11996074Y2840000D01*
X11996074Y4817268D01*
X13118981Y4817268D01*
X13090282Y4613326D01*
X12245935Y4613326D01*
G37*
G36*
X14784351Y4817268D02*
G01*
X14784351Y4617600D01*
X14344958Y4617600D01*
X14344958Y3039547D01*
X14784351Y3039547D01*
X14784351Y2840000D01*
X13652896Y2840000D01*
X13652896Y3039547D01*
X14092288Y3039547D01*
X14092288Y4617600D01*
X13652896Y4617600D01*
X13652896Y4817268D01*
X14784351Y4817268D01*
G37*
G36*
X16619225Y3387104D02*
G01*
X16609459Y3275742D01*
X16581091Y3175981D01*
X16534473Y3085587D01*
X16470904Y3006194D01*
X16389700Y2938097D01*
X16288276Y2880911D01*
X16178143Y2841259D01*
X16048851Y2816004D01*
X15896999Y2807028D01*
X15753660Y2814723D01*
X15623275Y2836998D01*
X15504256Y2872973D01*
X15391166Y2923888D01*
X15291352Y2986095D01*
X15203471Y3059697D01*
X15351360Y3226271D01*
X15460725Y3140215D01*
X15586810Y3073252D01*
X15677582Y3042679D01*
X15781685Y3023382D01*
X15901273Y3016588D01*
X16018987Y3026630D01*
X16126709Y3056033D01*
X16222357Y3106567D01*
X16296214Y3176689D01*
X16331314Y3233947D01*
X16353115Y3301775D01*
X16360816Y3382830D01*
X16351001Y3472974D01*
X16323447Y3545740D01*
X16274535Y3607443D01*
X16191311Y3666396D01*
X16086206Y3714976D01*
X15927163Y3768978D01*
X15739639Y3832286D01*
X15589009Y3898915D01*
X15498080Y3952913D01*
X15425136Y4012266D01*
X15367847Y4076968D01*
X15325310Y4150973D01*
X15298881Y4237793D01*
X15289567Y4340506D01*
X15298868Y4436469D01*
X15326095Y4523359D01*
X15371388Y4603190D01*
X15431810Y4673208D01*
X15506555Y4733196D01*
X15597557Y4783441D01*
X15695805Y4818953D01*
X15805955Y4841070D01*
X15929972Y4848776D01*
X16066102Y4841768D01*
X16184250Y4821924D01*
X16286810Y4790646D01*
X16431088Y4719908D01*
X16561828Y4623340D01*
X16415404Y4461162D01*
X16303958Y4542618D01*
X16187037Y4597450D01*
X16063588Y4629842D01*
X15938642Y4640559D01*
X15832460Y4632067D01*
X15740431Y4607810D01*
X15660083Y4568751D01*
X15595719Y4512775D01*
X15557381Y4441295D01*
X15543824Y4349177D01*
X15555656Y4268125D01*
X15589741Y4201899D01*
X15646793Y4146683D01*
X15744713Y4089181D01*
X15864588Y4040050D01*
X16042079Y3982935D01*
X16191566Y3932331D01*
X16326988Y3871682D01*
X16409757Y3821277D01*
X16479941Y3761114D01*
X16538747Y3690698D01*
X16581682Y3610802D01*
X16609247Y3511223D01*
X16619225Y3387104D01*
G37*
G36*
X17780722Y4603312D02*
G01*
X17780722Y2840000D01*
X17532327Y2840000D01*
X17532327Y4603312D01*
X16914881Y4603312D01*
X16914881Y4817268D01*
X18406716Y4817268D01*
X18380949Y4603312D01*
X17780722Y4603312D01*
G37*
G36*
X19131629Y4613326D02*
G01*
X19131629Y3947031D01*
X19863991Y3947031D01*
X19863991Y3741745D01*
X19131629Y3741745D01*
X19131629Y3039547D01*
X20030565Y3039547D01*
X20030565Y2840000D01*
X18881769Y2840000D01*
X18881769Y4817268D01*
X20004675Y4817268D01*
X19975976Y4613326D01*
X19131629Y4613326D01*
G37*
G36*
X21229639Y4806785D02*
G01*
X21380487Y4778024D01*
X21501349Y4734185D01*
X21597505Y4677195D01*
X21678978Y4600262D01*
X21737225Y4507923D01*
X21773539Y4397072D01*
X21786427Y4262959D01*
X21777098Y4153533D01*
X21750412Y4058782D01*
X21707259Y3976027D01*
X21647086Y3903312D01*
X21548042Y3822338D01*
X21434434Y3760446D01*
X21303925Y3717321D01*
X21889741Y2840000D01*
X21591154Y2840000D01*
X21051256Y3688622D01*
X20784176Y3688622D01*
X20784176Y2840000D01*
X20534316Y2840000D01*
X20534316Y3883894D01*
X20784176Y3883894D01*
X21071284Y3883894D01*
X21210778Y3894923D01*
X21318653Y3924884D01*
X21401622Y3970723D01*
X21450730Y4018480D01*
X21487151Y4080610D01*
X21510725Y4160513D01*
X21519347Y4262959D01*
X21511368Y4357382D01*
X21489457Y4431745D01*
X21455450Y4490219D01*
X21409438Y4535779D01*
X21331468Y4578823D01*
X21222038Y4607995D01*
X21071284Y4619065D01*
X20784176Y4619065D01*
X20784176Y3883894D01*
X20534316Y3883894D01*
X20534316Y4817268D01*
X21042585Y4817268D01*
X21229639Y4806785D01*
G37*
G36*
X24672486Y4806785D02*
G01*
X24823334Y4778024D01*
X24944196Y4734185D01*
X25040352Y4677195D01*
X25121825Y4600262D01*
X25180073Y4507923D01*
X25216386Y4397072D01*
X25229274Y4262959D01*
X25219946Y4153533D01*
X25193259Y4058782D01*
X25150106Y3976027D01*
X25089933Y3903312D01*
X24990889Y3822338D01*
X24877281Y3760446D01*
X24746772Y3717321D01*
X25332588Y2840000D01*
X25034002Y2840000D01*
X24494103Y3688622D01*
X24227023Y3688622D01*
X24227023Y2840000D01*
X23977163Y2840000D01*
X23977163Y3883894D01*
X24227023Y3883894D01*
X24514131Y3883894D01*
X24653626Y3894923D01*
X24761500Y3924884D01*
X24844469Y3970723D01*
X24893577Y4018480D01*
X24929998Y4080610D01*
X24953572Y4160513D01*
X24962194Y4262959D01*
X24954215Y4357382D01*
X24932304Y4431745D01*
X24898297Y4490219D01*
X24852285Y4535779D01*
X24774316Y4578823D01*
X24664886Y4607995D01*
X24514131Y4619065D01*
X24227023Y4619065D01*
X24227023Y3883894D01*
X23977163Y3883894D01*
X23977163Y4817268D01*
X24485432Y4817268D01*
X24672486Y4806785D01*
G37*
G36*
X26388352Y4840183D02*
G01*
X26493964Y4815516D01*
X26587720Y4775752D01*
X26671406Y4720915D01*
X26767925Y4627126D01*
X26849085Y4509086D01*
X26914794Y4362733D01*
X26958894Y4207017D01*
X26986796Y4029322D01*
X26996615Y3826497D01*
X26986850Y3627508D01*
X26959000Y3451837D01*
X26914794Y3296613D01*
X26849213Y3150646D01*
X26768065Y3032039D01*
X26671406Y2936965D01*
X26587599Y2881171D01*
X26493806Y2840776D01*
X26388239Y2815743D01*
X26268649Y2807028D01*
X26148835Y2815572D01*
X26043164Y2840091D01*
X25949405Y2879594D01*
X25865771Y2934034D01*
X25769212Y3027367D01*
X25688069Y3144516D01*
X25622383Y3289407D01*
X25578336Y3443763D01*
X25550409Y3620716D01*
X25540561Y3823566D01*
X25801901Y3823566D01*
X25810490Y3619351D01*
X25833910Y3455333D01*
X25869132Y3325010D01*
X25913886Y3222607D01*
X25978966Y3131551D01*
X26057796Y3068579D01*
X26152766Y3030140D01*
X26268649Y3016588D01*
X26388271Y3030428D01*
X26484752Y3069407D01*
X26563381Y3132819D01*
X26626831Y3224072D01*
X26670139Y3326924D01*
X26704260Y3457691D01*
X26726954Y3622082D01*
X26735275Y3826497D01*
X26726980Y4030719D01*
X26704325Y4195473D01*
X26670206Y4327002D01*
X26626831Y4430876D01*
X26563247Y4523243D01*
X26484547Y4587301D01*
X26388108Y4626614D01*
X26268649Y4640559D01*
X26149289Y4626551D01*
X26052851Y4587038D01*
X25974067Y4522584D01*
X25910345Y4429533D01*
X25866928Y4324938D01*
X25832810Y4192846D01*
X25810180Y4027769D01*
X25801901Y3823566D01*
X25540561Y3823566D01*
X25550307Y4022541D01*
X25578140Y4198732D01*
X25622383Y4354917D01*
X25688042Y4501919D01*
X25769202Y4621457D01*
X25865771Y4717373D01*
X25949662Y4773838D01*
X26043499Y4814680D01*
X26149073Y4839973D01*
X26268649Y4848776D01*
X26388352Y4840183D01*
G37*
G36*
X28020754Y4811323D02*
G01*
X28146510Y4793577D01*
X28266668Y4761134D01*
X28371946Y4713099D01*
X28462413Y4646363D01*
X28532048Y4560203D01*
X28564110Y4493558D01*
X28584412Y4414088D01*
X28591643Y4319013D01*
X28577806Y4198043D01*
X28539253Y4102858D01*
X28478686Y4023078D01*
X28402843Y3961442D01*
X28315892Y3916124D01*
X28224057Y3886825D01*
X28331442Y3860580D01*
X28437281Y3818559D01*
X28532007Y3756990D01*
X28609595Y3669938D01*
X28645900Y3600657D01*
X28669341Y3513586D01*
X28677861Y3404324D01*
X28670083Y3297702D01*
X28648258Y3208462D01*
X28613869Y3133580D01*
X28539157Y3036123D01*
X28443021Y2960656D01*
X28330987Y2905592D01*
X28204640Y2867966D01*
X28072335Y2847019D01*
X27936950Y2840000D01*
X27405600Y2840000D01*
X27405600Y3045287D01*
X27653995Y3045287D01*
X27979937Y3045287D01*
X28077593Y3051813D01*
X28178140Y3071787D01*
X28270797Y3110738D01*
X28346789Y3173758D01*
X28382913Y3228115D01*
X28406386Y3300305D01*
X28415055Y3395653D01*
X28407599Y3493878D01*
X28387466Y3569041D01*
X28356926Y3626096D01*
X28289404Y3694784D01*
X28202564Y3738814D01*
X28103323Y3762290D01*
X27991538Y3770444D01*
X27653995Y3770444D01*
X27653995Y3045287D01*
X27405600Y3045287D01*
X27405600Y3975852D01*
X27653995Y3975852D01*
X27972854Y3975852D01*
X28087207Y3985746D01*
X28174964Y4012634D01*
X28242009Y4054010D01*
X28291914Y4112792D01*
X28324079Y4194246D01*
X28336043Y4306068D01*
X28323022Y4412822D01*
X28287797Y4489958D01*
X28231995Y4545182D01*
X28159205Y4582812D01*
X28066374Y4607300D01*
X27948429Y4616257D01*
X27653995Y4616257D01*
X27653995Y3975852D01*
X27405600Y3975852D01*
X27405600Y4817268D01*
X27892376Y4817268D01*
X28020754Y4811323D01*
G37*
G36*
X29831199Y4840183D02*
G01*
X29936811Y4815516D01*
X30030567Y4775752D01*
X30114253Y4720915D01*
X30210772Y4627126D01*
X30291932Y4509086D01*
X30357641Y4362733D01*
X30401741Y4207017D01*
X30429643Y4029322D01*
X30439462Y3826497D01*
X30429697Y3627508D01*
X30401847Y3451837D01*
X30357641Y3296613D01*
X30292060Y3150646D01*
X30210912Y3032039D01*
X30114253Y2936965D01*
X30030446Y2881171D01*
X29936653Y2840776D01*
X29831086Y2815743D01*
X29711496Y2807028D01*
X29591682Y2815572D01*
X29486011Y2840091D01*
X29392252Y2879594D01*
X29308618Y2934034D01*
X29212060Y3027367D01*
X29130916Y3144516D01*
X29065230Y3289407D01*
X29021183Y3443763D01*
X28993256Y3620716D01*
X28983408Y3823566D01*
X29244748Y3823566D01*
X29253337Y3619351D01*
X29276757Y3455333D01*
X29311979Y3325010D01*
X29356734Y3222607D01*
X29421814Y3131551D01*
X29500643Y3068579D01*
X29595613Y3030140D01*
X29711496Y3016588D01*
X29831118Y3030428D01*
X29927599Y3069407D01*
X30006228Y3132819D01*
X30069678Y3224072D01*
X30112986Y3326924D01*
X30147108Y3457691D01*
X30169801Y3622082D01*
X30178122Y3826497D01*
X30169827Y4030719D01*
X30147172Y4195473D01*
X30113053Y4327002D01*
X30069678Y4430876D01*
X30006094Y4523243D01*
X29927394Y4587301D01*
X29830955Y4626614D01*
X29711496Y4640559D01*
X29592136Y4626551D01*
X29495699Y4587038D01*
X29416915Y4522584D01*
X29353192Y4429533D01*
X29309775Y4324938D01*
X29275657Y4192846D01*
X29253027Y4027769D01*
X29244748Y3823566D01*
X28983408Y3823566D01*
X28993154Y4022541D01*
X29020987Y4198732D01*
X29065230Y4354917D01*
X29130890Y4501919D01*
X29212049Y4621457D01*
X29308618Y4717373D01*
X29392509Y4773838D01*
X29486346Y4814680D01*
X29591920Y4839973D01*
X29711496Y4848776D01*
X29831199Y4840183D01*
G37*
G36*
X31552110Y4603312D02*
G01*
X31552110Y2840000D01*
X31303715Y2840000D01*
X31303715Y4603312D01*
X30686270Y4603312D01*
X30686270Y4817268D01*
X32178105Y4817268D01*
X32152337Y4603312D01*
X31552110Y4603312D01*
G37*
G36*
X33720010Y4817268D02*
G01*
X33720010Y4617600D01*
X33280617Y4617600D01*
X33280617Y3039547D01*
X33720010Y3039547D01*
X33720010Y2840000D01*
X32588555Y2840000D01*
X32588555Y3039547D01*
X33027948Y3039547D01*
X33027948Y4617600D01*
X32588555Y4617600D01*
X32588555Y4817268D01*
X33720010Y4817268D01*
G37*
G36*
X35042341Y4848776D02*
G01*
X35171274Y4842691D01*
X35278345Y4825829D01*
X35366817Y4799927D01*
X35493035Y4740392D01*
X35615212Y4656435D01*
X35475994Y4494135D01*
X35378533Y4562589D01*
X35278401Y4606853D01*
X35172499Y4632060D01*
X35061025Y4640559D01*
X34954831Y4631906D01*
X34855263Y4606342D01*
X34760851Y4563744D01*
X34677590Y4503807D01*
X34603723Y4420531D01*
X34538956Y4309610D01*
X34495180Y4188256D01*
X34465903Y4030925D01*
X34455059Y3829306D01*
X34465267Y3633447D01*
X34492988Y3478425D01*
X34534682Y3356940D01*
X34596773Y3245405D01*
X34668747Y3161138D01*
X34750837Y3099875D01*
X34844500Y3056331D01*
X34945403Y3029980D01*
X35055286Y3020984D01*
X35164687Y3027228D01*
X35254779Y3044520D01*
X35328715Y3071176D01*
X35431434Y3126302D01*
X35514706Y3186093D01*
X35643911Y3022328D01*
X35543332Y2942933D01*
X35408461Y2870897D01*
X35309689Y2836779D01*
X35192114Y2814866D01*
X35052355Y2807028D01*
X34894854Y2820368D01*
X34750698Y2859425D01*
X34617236Y2924020D01*
X34498830Y3012657D01*
X34396665Y3126572D01*
X34309979Y3269257D01*
X34249130Y3425509D01*
X34210344Y3610390D01*
X34196528Y3829306D01*
X34210617Y4049110D01*
X34250123Y4234125D01*
X34312055Y4389966D01*
X34399978Y4532353D01*
X34502412Y4645547D01*
X34620045Y4733127D01*
X34752344Y4797315D01*
X34892333Y4835759D01*
X35042341Y4848776D01*
G37*
G36*
X37276308Y3387104D02*
G01*
X37266542Y3275742D01*
X37238174Y3175981D01*
X37191556Y3085587D01*
X37127987Y3006194D01*
X37046783Y2938097D01*
X36945359Y2880911D01*
X36835227Y2841259D01*
X36705934Y2816004D01*
X36554082Y2807028D01*
X36410743Y2814723D01*
X36280358Y2836998D01*
X36161339Y2872973D01*
X36048249Y2923888D01*
X35948435Y2986095D01*
X35860554Y3059697D01*
X36008443Y3226271D01*
X36117808Y3140215D01*
X36243893Y3073252D01*
X36334665Y3042679D01*
X36438768Y3023382D01*
X36558356Y3016588D01*
X36676070Y3026630D01*
X36783792Y3056033D01*
X36879440Y3106567D01*
X36953297Y3176689D01*
X36988397Y3233947D01*
X37010198Y3301775D01*
X37017899Y3382830D01*
X37008084Y3472974D01*
X36980530Y3545740D01*
X36931618Y3607443D01*
X36848394Y3666396D01*
X36743289Y3714976D01*
X36584246Y3768978D01*
X36396723Y3832286D01*
X36246092Y3898915D01*
X36155163Y3952913D01*
X36082219Y4012266D01*
X36024930Y4076968D01*
X35982393Y4150973D01*
X35955964Y4237793D01*
X35946650Y4340506D01*
X35955951Y4436469D01*
X35983178Y4523359D01*
X36028471Y4603190D01*
X36088893Y4673208D01*
X36163638Y4733196D01*
X36254640Y4783441D01*
X36352888Y4818953D01*
X36463038Y4841070D01*
X36587055Y4848776D01*
X36723185Y4841768D01*
X36841333Y4821924D01*
X36943893Y4790646D01*
X37088171Y4719908D01*
X37218911Y4623340D01*
X37072487Y4461162D01*
X36961041Y4542618D01*
X36844120Y4597450D01*
X36720671Y4629842D01*
X36595725Y4640559D01*
X36489543Y4632067D01*
X36397514Y4607810D01*
X36317166Y4568751D01*
X36252802Y4512775D01*
X36214464Y4441295D01*
X36200907Y4349177D01*
X36212739Y4268125D01*
X36246824Y4201899D01*
X36303876Y4146683D01*
X36401796Y4089181D01*
X36521671Y4040050D01*
X36699162Y3982935D01*
X36848649Y3932331D01*
X36984071Y3871682D01*
X37066840Y3821277D01*
X37137024Y3761114D01*
X37195830Y3690698D01*
X37238765Y3610802D01*
X37266330Y3511223D01*
X37276308Y3387104D01*
G37*
D11*
X379916666Y17545181D02*
X379583333Y18021372D01*
X379345238Y17545181D02*
X379345238Y18545181D01*
X379345238Y18545181D02*
X379726190Y18545181D01*
X379726190Y18545181D02*
X379821428Y18497562D01*
X379821428Y18497562D02*
X379869047Y18449943D01*
X379869047Y18449943D02*
X379916666Y18354705D01*
X379916666Y18354705D02*
X379916666Y18211848D01*
X379916666Y18211848D02*
X379869047Y18116610D01*
X379869047Y18116610D02*
X379821428Y18068991D01*
X379821428Y18068991D02*
X379726190Y18021372D01*
X379726190Y18021372D02*
X379345238Y18021372D01*
X380345238Y18068991D02*
X380678571Y18068991D01*
X380821428Y17545181D02*
X380345238Y17545181D01*
X380345238Y17545181D02*
X380345238Y18545181D01*
X380345238Y18545181D02*
X380821428Y18545181D01*
X381583333Y18068991D02*
X381250000Y18068991D01*
X381250000Y17545181D02*
X381250000Y18545181D01*
X381250000Y18545181D02*
X381726190Y18545181D01*
X382250000Y18545181D02*
X382250000Y18307086D01*
X382011905Y18402324D02*
X382250000Y18307086D01*
X382250000Y18307086D02*
X382488095Y18402324D01*
X382107143Y18116610D02*
X382250000Y18307086D01*
X382250000Y18307086D02*
X382392857Y18116610D01*
X383011905Y18545181D02*
X383011905Y18307086D01*
X382773810Y18402324D02*
X383011905Y18307086D01*
X383011905Y18307086D02*
X383250000Y18402324D01*
X382869048Y18116610D02*
X383011905Y18307086D01*
X383011905Y18307086D02*
X383154762Y18116610D01*
X180916666Y17545181D02*
X180583333Y18021372D01*
X180345238Y17545181D02*
X180345238Y18545181D01*
X180345238Y18545181D02*
X180726190Y18545181D01*
X180726190Y18545181D02*
X180821428Y18497562D01*
X180821428Y18497562D02*
X180869047Y18449943D01*
X180869047Y18449943D02*
X180916666Y18354705D01*
X180916666Y18354705D02*
X180916666Y18211848D01*
X180916666Y18211848D02*
X180869047Y18116610D01*
X180869047Y18116610D02*
X180821428Y18068991D01*
X180821428Y18068991D02*
X180726190Y18021372D01*
X180726190Y18021372D02*
X180345238Y18021372D01*
X181345238Y18068991D02*
X181678571Y18068991D01*
X181821428Y17545181D02*
X181345238Y17545181D01*
X181345238Y17545181D02*
X181345238Y18545181D01*
X181345238Y18545181D02*
X181821428Y18545181D01*
X182583333Y18068991D02*
X182250000Y18068991D01*
X182250000Y17545181D02*
X182250000Y18545181D01*
X182250000Y18545181D02*
X182726190Y18545181D01*
X183250000Y18545181D02*
X183250000Y18307086D01*
X183011905Y18402324D02*
X183250000Y18307086D01*
X183250000Y18307086D02*
X183488095Y18402324D01*
X183107143Y18116610D02*
X183250000Y18307086D01*
X183250000Y18307086D02*
X183392857Y18116610D01*
X184011905Y18545181D02*
X184011905Y18307086D01*
X183773810Y18402324D02*
X184011905Y18307086D01*
X184011905Y18307086D02*
X184250000Y18402324D01*
X183869048Y18116610D02*
X184011905Y18307086D01*
X184011905Y18307086D02*
X184154762Y18116610D01*
X249357142Y16640420D02*
X249309523Y16592800D01*
X249309523Y16592800D02*
X249166666Y16545181D01*
X249166666Y16545181D02*
X249071428Y16545181D01*
X249071428Y16545181D02*
X248928571Y16592800D01*
X248928571Y16592800D02*
X248833333Y16688039D01*
X248833333Y16688039D02*
X248785714Y16783277D01*
X248785714Y16783277D02*
X248738095Y16973753D01*
X248738095Y16973753D02*
X248738095Y17116610D01*
X248738095Y17116610D02*
X248785714Y17307086D01*
X248785714Y17307086D02*
X248833333Y17402324D01*
X248833333Y17402324D02*
X248928571Y17497562D01*
X248928571Y17497562D02*
X249071428Y17545181D01*
X249071428Y17545181D02*
X249166666Y17545181D01*
X249166666Y17545181D02*
X249309523Y17497562D01*
X249309523Y17497562D02*
X249357142Y17449943D01*
X250309523Y16545181D02*
X249738095Y16545181D01*
X250023809Y16545181D02*
X250023809Y17545181D01*
X250023809Y17545181D02*
X249928571Y17402324D01*
X249928571Y17402324D02*
X249833333Y17307086D01*
X249833333Y17307086D02*
X249738095Y17259467D01*
X250642857Y17545181D02*
X251261904Y17545181D01*
X251261904Y17545181D02*
X250928571Y17164229D01*
X250928571Y17164229D02*
X251071428Y17164229D01*
X251071428Y17164229D02*
X251166666Y17116610D01*
X251166666Y17116610D02*
X251214285Y17068991D01*
X251214285Y17068991D02*
X251261904Y16973753D01*
X251261904Y16973753D02*
X251261904Y16735658D01*
X251261904Y16735658D02*
X251214285Y16640420D01*
X251214285Y16640420D02*
X251166666Y16592800D01*
X251166666Y16592800D02*
X251071428Y16545181D01*
X251071428Y16545181D02*
X250785714Y16545181D01*
X250785714Y16545181D02*
X250690476Y16592800D01*
X250690476Y16592800D02*
X250642857Y16640420D01*
X266524819Y12532143D02*
X266048628Y12198810D01*
X266524819Y11960715D02*
X265524819Y11960715D01*
X265524819Y11960715D02*
X265524819Y12341667D01*
X265524819Y12341667D02*
X265572438Y12436905D01*
X265572438Y12436905D02*
X265620057Y12484524D01*
X265620057Y12484524D02*
X265715295Y12532143D01*
X265715295Y12532143D02*
X265858152Y12532143D01*
X265858152Y12532143D02*
X265953390Y12484524D01*
X265953390Y12484524D02*
X266001009Y12436905D01*
X266001009Y12436905D02*
X266048628Y12341667D01*
X266048628Y12341667D02*
X266048628Y11960715D01*
X266524819Y13484524D02*
X266524819Y12913096D01*
X266524819Y13198810D02*
X265524819Y13198810D01*
X265524819Y13198810D02*
X265667676Y13103572D01*
X265667676Y13103572D02*
X265762914Y13008334D01*
X265762914Y13008334D02*
X265810533Y12913096D01*
X265858152Y14341667D02*
X266524819Y14341667D01*
X265477200Y14103572D02*
X266191485Y13865477D01*
X266191485Y13865477D02*
X266191485Y14484524D01*
X297793117Y9945181D02*
X297459784Y10421372D01*
X297221689Y9945181D02*
X297221689Y10945181D01*
X297221689Y10945181D02*
X297602641Y10945181D01*
X297602641Y10945181D02*
X297697879Y10897562D01*
X297697879Y10897562D02*
X297745498Y10849943D01*
X297745498Y10849943D02*
X297793117Y10754705D01*
X297793117Y10754705D02*
X297793117Y10611848D01*
X297793117Y10611848D02*
X297745498Y10516610D01*
X297745498Y10516610D02*
X297697879Y10468991D01*
X297697879Y10468991D02*
X297602641Y10421372D01*
X297602641Y10421372D02*
X297221689Y10421372D01*
X298221689Y10468991D02*
X298555022Y10468991D01*
X298697879Y9945181D02*
X298221689Y9945181D01*
X298221689Y9945181D02*
X298221689Y10945181D01*
X298221689Y10945181D02*
X298697879Y10945181D01*
X299459784Y10468991D02*
X299126451Y10468991D01*
X299126451Y9945181D02*
X299126451Y10945181D01*
X299126451Y10945181D02*
X299602641Y10945181D01*
X300126451Y10945181D02*
X300126451Y10707086D01*
X299888356Y10802324D02*
X300126451Y10707086D01*
X300126451Y10707086D02*
X300364546Y10802324D01*
X299983594Y10516610D02*
X300126451Y10707086D01*
X300126451Y10707086D02*
X300269308Y10516610D01*
X300888356Y10945181D02*
X300888356Y10707086D01*
X300650261Y10802324D02*
X300888356Y10707086D01*
X300888356Y10707086D02*
X301126451Y10802324D01*
X300745499Y10516610D02*
X300888356Y10707086D01*
X300888356Y10707086D02*
X301031213Y10516610D01*
D10*
X408407419Y12738096D02*
X409216942Y12738096D01*
X409216942Y12738096D02*
X409312180Y12785715D01*
X409312180Y12785715D02*
X409359800Y12833334D01*
X409359800Y12833334D02*
X409407419Y12928572D01*
X409407419Y12928572D02*
X409407419Y13119048D01*
X409407419Y13119048D02*
X409359800Y13214286D01*
X409359800Y13214286D02*
X409312180Y13261905D01*
X409312180Y13261905D02*
X409216942Y13309524D01*
X409216942Y13309524D02*
X408407419Y13309524D01*
X408407419Y13690477D02*
X408407419Y14357143D01*
X408407419Y14357143D02*
X409407419Y13928572D01*
X249407419Y12738096D02*
X250216942Y12738096D01*
X250216942Y12738096D02*
X250312180Y12785715D01*
X250312180Y12785715D02*
X250359800Y12833334D01*
X250359800Y12833334D02*
X250407419Y12928572D01*
X250407419Y12928572D02*
X250407419Y13119048D01*
X250407419Y13119048D02*
X250359800Y13214286D01*
X250359800Y13214286D02*
X250312180Y13261905D01*
X250312180Y13261905D02*
X250216942Y13309524D01*
X250216942Y13309524D02*
X249407419Y13309524D01*
X249407419Y14261905D02*
X249407419Y13785715D01*
X249407419Y13785715D02*
X249883609Y13738096D01*
X249883609Y13738096D02*
X249835990Y13785715D01*
X249835990Y13785715D02*
X249788371Y13880953D01*
X249788371Y13880953D02*
X249788371Y14119048D01*
X249788371Y14119048D02*
X249835990Y14214286D01*
X249835990Y14214286D02*
X249883609Y14261905D01*
X249883609Y14261905D02*
X249978847Y14309524D01*
X249978847Y14309524D02*
X250216942Y14309524D01*
X250216942Y14309524D02*
X250312180Y14261905D01*
X250312180Y14261905D02*
X250359800Y14214286D01*
X250359800Y14214286D02*
X250407419Y14119048D01*
X250407419Y14119048D02*
X250407419Y13880953D01*
X250407419Y13880953D02*
X250359800Y13785715D01*
X250359800Y13785715D02*
X250312180Y13738096D01*
D11*
X264859580Y17357143D02*
X264907200Y17309524D01*
X264907200Y17309524D02*
X264954819Y17166667D01*
X264954819Y17166667D02*
X264954819Y17071429D01*
X264954819Y17071429D02*
X264907200Y16928572D01*
X264907200Y16928572D02*
X264811961Y16833334D01*
X264811961Y16833334D02*
X264716723Y16785715D01*
X264716723Y16785715D02*
X264526247Y16738096D01*
X264526247Y16738096D02*
X264383390Y16738096D01*
X264383390Y16738096D02*
X264192914Y16785715D01*
X264192914Y16785715D02*
X264097676Y16833334D01*
X264097676Y16833334D02*
X264002438Y16928572D01*
X264002438Y16928572D02*
X263954819Y17071429D01*
X263954819Y17071429D02*
X263954819Y17166667D01*
X263954819Y17166667D02*
X264002438Y17309524D01*
X264002438Y17309524D02*
X264050057Y17357143D01*
X264954819Y18309524D02*
X264954819Y17738096D01*
X264954819Y18023810D02*
X263954819Y18023810D01*
X263954819Y18023810D02*
X264097676Y17928572D01*
X264097676Y17928572D02*
X264192914Y17833334D01*
X264192914Y17833334D02*
X264240533Y17738096D01*
X264954819Y19261905D02*
X264954819Y18690477D01*
X264954819Y18976191D02*
X263954819Y18976191D01*
X263954819Y18976191D02*
X264097676Y18880953D01*
X264097676Y18880953D02*
X264192914Y18785715D01*
X264192914Y18785715D02*
X264240533Y18690477D01*
D10*
X169907419Y12988096D02*
X170716942Y12988096D01*
X170716942Y12988096D02*
X170812180Y13035715D01*
X170812180Y13035715D02*
X170859800Y13083334D01*
X170859800Y13083334D02*
X170907419Y13178572D01*
X170907419Y13178572D02*
X170907419Y13369048D01*
X170907419Y13369048D02*
X170859800Y13464286D01*
X170859800Y13464286D02*
X170812180Y13511905D01*
X170812180Y13511905D02*
X170716942Y13559524D01*
X170716942Y13559524D02*
X169907419Y13559524D01*
X170240752Y14464286D02*
X170907419Y14464286D01*
X169859800Y14226191D02*
X170574085Y13988096D01*
X170574085Y13988096D02*
X170574085Y14607143D01*
D11*
X316166666Y5445181D02*
X315833333Y5921372D01*
X315595238Y5445181D02*
X315595238Y6445181D01*
X315595238Y6445181D02*
X315976190Y6445181D01*
X315976190Y6445181D02*
X316071428Y6397562D01*
X316071428Y6397562D02*
X316119047Y6349943D01*
X316119047Y6349943D02*
X316166666Y6254705D01*
X316166666Y6254705D02*
X316166666Y6111848D01*
X316166666Y6111848D02*
X316119047Y6016610D01*
X316119047Y6016610D02*
X316071428Y5968991D01*
X316071428Y5968991D02*
X315976190Y5921372D01*
X315976190Y5921372D02*
X315595238Y5921372D01*
X316595238Y5968991D02*
X316928571Y5968991D01*
X317071428Y5445181D02*
X316595238Y5445181D01*
X316595238Y5445181D02*
X316595238Y6445181D01*
X316595238Y6445181D02*
X317071428Y6445181D01*
X317833333Y5968991D02*
X317500000Y5968991D01*
X317500000Y5445181D02*
X317500000Y6445181D01*
X317500000Y6445181D02*
X317976190Y6445181D01*
X318500000Y6445181D02*
X318500000Y6207086D01*
X318261905Y6302324D02*
X318500000Y6207086D01*
X318500000Y6207086D02*
X318738095Y6302324D01*
X318357143Y6016610D02*
X318500000Y6207086D01*
X318500000Y6207086D02*
X318642857Y6016610D01*
X319261905Y6445181D02*
X319261905Y6207086D01*
X319023810Y6302324D02*
X319261905Y6207086D01*
X319261905Y6207086D02*
X319500000Y6302324D01*
X319119048Y6016610D02*
X319261905Y6207086D01*
X319261905Y6207086D02*
X319404762Y6016610D01*
X320223629Y13896667D02*
X320937914Y13896667D01*
X320937914Y13896667D02*
X321080771Y13849048D01*
X321080771Y13849048D02*
X321176010Y13753810D01*
X321176010Y13753810D02*
X321223629Y13610953D01*
X321223629Y13610953D02*
X321223629Y13515715D01*
X321223629Y14896667D02*
X321223629Y14325239D01*
X321223629Y14610953D02*
X320223629Y14610953D01*
X320223629Y14610953D02*
X320366486Y14515715D01*
X320366486Y14515715D02*
X320461724Y14420477D01*
X320461724Y14420477D02*
X320509343Y14325239D01*
X401583333Y13045181D02*
X401250000Y13521372D01*
X401011905Y13045181D02*
X401011905Y14045181D01*
X401011905Y14045181D02*
X401392857Y14045181D01*
X401392857Y14045181D02*
X401488095Y13997562D01*
X401488095Y13997562D02*
X401535714Y13949943D01*
X401535714Y13949943D02*
X401583333Y13854705D01*
X401583333Y13854705D02*
X401583333Y13711848D01*
X401583333Y13711848D02*
X401535714Y13616610D01*
X401535714Y13616610D02*
X401488095Y13568991D01*
X401488095Y13568991D02*
X401392857Y13521372D01*
X401392857Y13521372D02*
X401011905Y13521372D01*
X402440476Y14045181D02*
X402250000Y14045181D01*
X402250000Y14045181D02*
X402154762Y13997562D01*
X402154762Y13997562D02*
X402107143Y13949943D01*
X402107143Y13949943D02*
X402011905Y13807086D01*
X402011905Y13807086D02*
X401964286Y13616610D01*
X401964286Y13616610D02*
X401964286Y13235658D01*
X401964286Y13235658D02*
X402011905Y13140420D01*
X402011905Y13140420D02*
X402059524Y13092800D01*
X402059524Y13092800D02*
X402154762Y13045181D01*
X402154762Y13045181D02*
X402345238Y13045181D01*
X402345238Y13045181D02*
X402440476Y13092800D01*
X402440476Y13092800D02*
X402488095Y13140420D01*
X402488095Y13140420D02*
X402535714Y13235658D01*
X402535714Y13235658D02*
X402535714Y13473753D01*
X402535714Y13473753D02*
X402488095Y13568991D01*
X402488095Y13568991D02*
X402440476Y13616610D01*
X402440476Y13616610D02*
X402345238Y13664229D01*
X402345238Y13664229D02*
X402154762Y13664229D01*
X402154762Y13664229D02*
X402059524Y13616610D01*
X402059524Y13616610D02*
X402011905Y13568991D01*
X402011905Y13568991D02*
X401964286Y13473753D01*
X250166666Y4545181D02*
X249833333Y5021372D01*
X249595238Y4545181D02*
X249595238Y5545181D01*
X249595238Y5545181D02*
X249976190Y5545181D01*
X249976190Y5545181D02*
X250071428Y5497562D01*
X250071428Y5497562D02*
X250119047Y5449943D01*
X250119047Y5449943D02*
X250166666Y5354705D01*
X250166666Y5354705D02*
X250166666Y5211848D01*
X250166666Y5211848D02*
X250119047Y5116610D01*
X250119047Y5116610D02*
X250071428Y5068991D01*
X250071428Y5068991D02*
X249976190Y5021372D01*
X249976190Y5021372D02*
X249595238Y5021372D01*
X250595238Y5068991D02*
X250928571Y5068991D01*
X251071428Y4545181D02*
X250595238Y4545181D01*
X250595238Y4545181D02*
X250595238Y5545181D01*
X250595238Y5545181D02*
X251071428Y5545181D01*
X251833333Y5068991D02*
X251500000Y5068991D01*
X251500000Y4545181D02*
X251500000Y5545181D01*
X251500000Y5545181D02*
X251976190Y5545181D01*
X252500000Y5545181D02*
X252500000Y5307086D01*
X252261905Y5402324D02*
X252500000Y5307086D01*
X252500000Y5307086D02*
X252738095Y5402324D01*
X252357143Y5116610D02*
X252500000Y5307086D01*
X252500000Y5307086D02*
X252642857Y5116610D01*
X253261905Y5545181D02*
X253261905Y5307086D01*
X253023810Y5402324D02*
X253261905Y5307086D01*
X253261905Y5307086D02*
X253500000Y5402324D01*
X253119048Y5116610D02*
X253261905Y5307086D01*
X253261905Y5307086D02*
X253404762Y5116610D01*
X560083333Y13045181D02*
X559750000Y13521372D01*
X559511905Y13045181D02*
X559511905Y14045181D01*
X559511905Y14045181D02*
X559892857Y14045181D01*
X559892857Y14045181D02*
X559988095Y13997562D01*
X559988095Y13997562D02*
X560035714Y13949943D01*
X560035714Y13949943D02*
X560083333Y13854705D01*
X560083333Y13854705D02*
X560083333Y13711848D01*
X560083333Y13711848D02*
X560035714Y13616610D01*
X560035714Y13616610D02*
X559988095Y13568991D01*
X559988095Y13568991D02*
X559892857Y13521372D01*
X559892857Y13521372D02*
X559511905Y13521372D01*
X560654762Y13616610D02*
X560559524Y13664229D01*
X560559524Y13664229D02*
X560511905Y13711848D01*
X560511905Y13711848D02*
X560464286Y13807086D01*
X560464286Y13807086D02*
X560464286Y13854705D01*
X560464286Y13854705D02*
X560511905Y13949943D01*
X560511905Y13949943D02*
X560559524Y13997562D01*
X560559524Y13997562D02*
X560654762Y14045181D01*
X560654762Y14045181D02*
X560845238Y14045181D01*
X560845238Y14045181D02*
X560940476Y13997562D01*
X560940476Y13997562D02*
X560988095Y13949943D01*
X560988095Y13949943D02*
X561035714Y13854705D01*
X561035714Y13854705D02*
X561035714Y13807086D01*
X561035714Y13807086D02*
X560988095Y13711848D01*
X560988095Y13711848D02*
X560940476Y13664229D01*
X560940476Y13664229D02*
X560845238Y13616610D01*
X560845238Y13616610D02*
X560654762Y13616610D01*
X560654762Y13616610D02*
X560559524Y13568991D01*
X560559524Y13568991D02*
X560511905Y13521372D01*
X560511905Y13521372D02*
X560464286Y13426134D01*
X560464286Y13426134D02*
X560464286Y13235658D01*
X560464286Y13235658D02*
X560511905Y13140420D01*
X560511905Y13140420D02*
X560559524Y13092800D01*
X560559524Y13092800D02*
X560654762Y13045181D01*
X560654762Y13045181D02*
X560845238Y13045181D01*
X560845238Y13045181D02*
X560940476Y13092800D01*
X560940476Y13092800D02*
X560988095Y13140420D01*
X560988095Y13140420D02*
X561035714Y13235658D01*
X561035714Y13235658D02*
X561035714Y13426134D01*
X561035714Y13426134D02*
X560988095Y13521372D01*
X560988095Y13521372D02*
X560940476Y13568991D01*
X560940476Y13568991D02*
X560845238Y13616610D01*
X266884819Y8107143D02*
X266408628Y7773810D01*
X266884819Y7535715D02*
X265884819Y7535715D01*
X265884819Y7535715D02*
X265884819Y7916667D01*
X265884819Y7916667D02*
X265932438Y8011905D01*
X265932438Y8011905D02*
X265980057Y8059524D01*
X265980057Y8059524D02*
X266075295Y8107143D01*
X266075295Y8107143D02*
X266218152Y8107143D01*
X266218152Y8107143D02*
X266313390Y8059524D01*
X266313390Y8059524D02*
X266361009Y8011905D01*
X266361009Y8011905D02*
X266408628Y7916667D01*
X266408628Y7916667D02*
X266408628Y7535715D01*
X266884819Y9059524D02*
X266884819Y8488096D01*
X266884819Y8773810D02*
X265884819Y8773810D01*
X265884819Y8773810D02*
X266027676Y8678572D01*
X266027676Y8678572D02*
X266122914Y8583334D01*
X266122914Y8583334D02*
X266170533Y8488096D01*
X265884819Y9392858D02*
X265884819Y10011905D01*
X265884819Y10011905D02*
X266265771Y9678572D01*
X266265771Y9678572D02*
X266265771Y9821429D01*
X266265771Y9821429D02*
X266313390Y9916667D01*
X266313390Y9916667D02*
X266361009Y9964286D01*
X266361009Y9964286D02*
X266456247Y10011905D01*
X266456247Y10011905D02*
X266694342Y10011905D01*
X266694342Y10011905D02*
X266789580Y9964286D01*
X266789580Y9964286D02*
X266837200Y9916667D01*
X266837200Y9916667D02*
X266884819Y9821429D01*
X266884819Y9821429D02*
X266884819Y9535715D01*
X266884819Y9535715D02*
X266837200Y9440477D01*
X266837200Y9440477D02*
X266789580Y9392858D01*
X162583333Y13795181D02*
X162250000Y14271372D01*
X162011905Y13795181D02*
X162011905Y14795181D01*
X162011905Y14795181D02*
X162392857Y14795181D01*
X162392857Y14795181D02*
X162488095Y14747562D01*
X162488095Y14747562D02*
X162535714Y14699943D01*
X162535714Y14699943D02*
X162583333Y14604705D01*
X162583333Y14604705D02*
X162583333Y14461848D01*
X162583333Y14461848D02*
X162535714Y14366610D01*
X162535714Y14366610D02*
X162488095Y14318991D01*
X162488095Y14318991D02*
X162392857Y14271372D01*
X162392857Y14271372D02*
X162011905Y14271372D01*
X162916667Y14795181D02*
X163535714Y14795181D01*
X163535714Y14795181D02*
X163202381Y14414229D01*
X163202381Y14414229D02*
X163345238Y14414229D01*
X163345238Y14414229D02*
X163440476Y14366610D01*
X163440476Y14366610D02*
X163488095Y14318991D01*
X163488095Y14318991D02*
X163535714Y14223753D01*
X163535714Y14223753D02*
X163535714Y13985658D01*
X163535714Y13985658D02*
X163488095Y13890420D01*
X163488095Y13890420D02*
X163440476Y13842800D01*
X163440476Y13842800D02*
X163345238Y13795181D01*
X163345238Y13795181D02*
X163059524Y13795181D01*
X163059524Y13795181D02*
X162964286Y13842800D01*
X162964286Y13842800D02*
X162916667Y13890420D01*
X322083333Y13045181D02*
X321750000Y13521372D01*
X321511905Y13045181D02*
X321511905Y14045181D01*
X321511905Y14045181D02*
X321892857Y14045181D01*
X321892857Y14045181D02*
X321988095Y13997562D01*
X321988095Y13997562D02*
X322035714Y13949943D01*
X322035714Y13949943D02*
X322083333Y13854705D01*
X322083333Y13854705D02*
X322083333Y13711848D01*
X322083333Y13711848D02*
X322035714Y13616610D01*
X322035714Y13616610D02*
X321988095Y13568991D01*
X321988095Y13568991D02*
X321892857Y13521372D01*
X321892857Y13521372D02*
X321511905Y13521372D01*
X322988095Y14045181D02*
X322511905Y14045181D01*
X322511905Y14045181D02*
X322464286Y13568991D01*
X322464286Y13568991D02*
X322511905Y13616610D01*
X322511905Y13616610D02*
X322607143Y13664229D01*
X322607143Y13664229D02*
X322845238Y13664229D01*
X322845238Y13664229D02*
X322940476Y13616610D01*
X322940476Y13616610D02*
X322988095Y13568991D01*
X322988095Y13568991D02*
X323035714Y13473753D01*
X323035714Y13473753D02*
X323035714Y13235658D01*
X323035714Y13235658D02*
X322988095Y13140420D01*
X322988095Y13140420D02*
X322940476Y13092800D01*
X322940476Y13092800D02*
X322845238Y13045181D01*
X322845238Y13045181D02*
X322607143Y13045181D01*
X322607143Y13045181D02*
X322511905Y13092800D01*
X322511905Y13092800D02*
X322464286Y13140420D01*
X262954819Y6738096D02*
X263764342Y6738096D01*
X263764342Y6738096D02*
X263859580Y6785715D01*
X263859580Y6785715D02*
X263907200Y6833334D01*
X263907200Y6833334D02*
X263954819Y6928572D01*
X263954819Y6928572D02*
X263954819Y7119048D01*
X263954819Y7119048D02*
X263907200Y7214286D01*
X263907200Y7214286D02*
X263859580Y7261905D01*
X263859580Y7261905D02*
X263764342Y7309524D01*
X263764342Y7309524D02*
X262954819Y7309524D01*
X263050057Y7738096D02*
X263002438Y7785715D01*
X263002438Y7785715D02*
X262954819Y7880953D01*
X262954819Y7880953D02*
X262954819Y8119048D01*
X262954819Y8119048D02*
X263002438Y8214286D01*
X263002438Y8214286D02*
X263050057Y8261905D01*
X263050057Y8261905D02*
X263145295Y8309524D01*
X263145295Y8309524D02*
X263240533Y8309524D01*
X263240533Y8309524D02*
X263383390Y8261905D01*
X263383390Y8261905D02*
X263954819Y7690477D01*
X263954819Y7690477D02*
X263954819Y8309524D01*
X260359580Y7357143D02*
X260407200Y7309524D01*
X260407200Y7309524D02*
X260454819Y7166667D01*
X260454819Y7166667D02*
X260454819Y7071429D01*
X260454819Y7071429D02*
X260407200Y6928572D01*
X260407200Y6928572D02*
X260311961Y6833334D01*
X260311961Y6833334D02*
X260216723Y6785715D01*
X260216723Y6785715D02*
X260026247Y6738096D01*
X260026247Y6738096D02*
X259883390Y6738096D01*
X259883390Y6738096D02*
X259692914Y6785715D01*
X259692914Y6785715D02*
X259597676Y6833334D01*
X259597676Y6833334D02*
X259502438Y6928572D01*
X259502438Y6928572D02*
X259454819Y7071429D01*
X259454819Y7071429D02*
X259454819Y7166667D01*
X259454819Y7166667D02*
X259502438Y7309524D01*
X259502438Y7309524D02*
X259550057Y7357143D01*
X260454819Y8309524D02*
X260454819Y7738096D01*
X260454819Y8023810D02*
X259454819Y8023810D01*
X259454819Y8023810D02*
X259597676Y7928572D01*
X259597676Y7928572D02*
X259692914Y7833334D01*
X259692914Y7833334D02*
X259740533Y7738096D01*
X259454819Y8928572D02*
X259454819Y9023810D01*
X259454819Y9023810D02*
X259502438Y9119048D01*
X259502438Y9119048D02*
X259550057Y9166667D01*
X259550057Y9166667D02*
X259645295Y9214286D01*
X259645295Y9214286D02*
X259835771Y9261905D01*
X259835771Y9261905D02*
X260073866Y9261905D01*
X260073866Y9261905D02*
X260264342Y9214286D01*
X260264342Y9214286D02*
X260359580Y9166667D01*
X260359580Y9166667D02*
X260407200Y9119048D01*
X260407200Y9119048D02*
X260454819Y9023810D01*
X260454819Y9023810D02*
X260454819Y8928572D01*
X260454819Y8928572D02*
X260407200Y8833334D01*
X260407200Y8833334D02*
X260359580Y8785715D01*
X260359580Y8785715D02*
X260264342Y8738096D01*
X260264342Y8738096D02*
X260073866Y8690477D01*
X260073866Y8690477D02*
X259835771Y8690477D01*
X259835771Y8690477D02*
X259645295Y8738096D01*
X259645295Y8738096D02*
X259550057Y8785715D01*
X259550057Y8785715D02*
X259502438Y8833334D01*
X259502438Y8833334D02*
X259454819Y8928572D01*
X252422142Y8210420D02*
X252374523Y8162800D01*
X252374523Y8162800D02*
X252231666Y8115181D01*
X252231666Y8115181D02*
X252136428Y8115181D01*
X252136428Y8115181D02*
X251993571Y8162800D01*
X251993571Y8162800D02*
X251898333Y8258039D01*
X251898333Y8258039D02*
X251850714Y8353277D01*
X251850714Y8353277D02*
X251803095Y8543753D01*
X251803095Y8543753D02*
X251803095Y8686610D01*
X251803095Y8686610D02*
X251850714Y8877086D01*
X251850714Y8877086D02*
X251898333Y8972324D01*
X251898333Y8972324D02*
X251993571Y9067562D01*
X251993571Y9067562D02*
X252136428Y9115181D01*
X252136428Y9115181D02*
X252231666Y9115181D01*
X252231666Y9115181D02*
X252374523Y9067562D01*
X252374523Y9067562D02*
X252422142Y9019943D01*
X253374523Y8115181D02*
X252803095Y8115181D01*
X253088809Y8115181D02*
X253088809Y9115181D01*
X253088809Y9115181D02*
X252993571Y8972324D01*
X252993571Y8972324D02*
X252898333Y8877086D01*
X252898333Y8877086D02*
X252803095Y8829467D01*
X254231666Y8781848D02*
X254231666Y8115181D01*
X253993571Y9162800D02*
X253755476Y8448515D01*
X253755476Y8448515D02*
X254374523Y8448515D01*
X481083333Y12045181D02*
X480750000Y12521372D01*
X480511905Y12045181D02*
X480511905Y13045181D01*
X480511905Y13045181D02*
X480892857Y13045181D01*
X480892857Y13045181D02*
X480988095Y12997562D01*
X480988095Y12997562D02*
X481035714Y12949943D01*
X481035714Y12949943D02*
X481083333Y12854705D01*
X481083333Y12854705D02*
X481083333Y12711848D01*
X481083333Y12711848D02*
X481035714Y12616610D01*
X481035714Y12616610D02*
X480988095Y12568991D01*
X480988095Y12568991D02*
X480892857Y12521372D01*
X480892857Y12521372D02*
X480511905Y12521372D01*
X481416667Y13045181D02*
X482083333Y13045181D01*
X482083333Y13045181D02*
X481654762Y12045181D01*
X3083333Y13045181D02*
X2750000Y13521372D01*
X2511905Y13045181D02*
X2511905Y14045181D01*
X2511905Y14045181D02*
X2892857Y14045181D01*
X2892857Y14045181D02*
X2988095Y13997562D01*
X2988095Y13997562D02*
X3035714Y13949943D01*
X3035714Y13949943D02*
X3083333Y13854705D01*
X3083333Y13854705D02*
X3083333Y13711848D01*
X3083333Y13711848D02*
X3035714Y13616610D01*
X3035714Y13616610D02*
X2988095Y13568991D01*
X2988095Y13568991D02*
X2892857Y13521372D01*
X2892857Y13521372D02*
X2511905Y13521372D01*
X4035714Y13045181D02*
X3464286Y13045181D01*
X3750000Y13045181D02*
X3750000Y14045181D01*
X3750000Y14045181D02*
X3654762Y13902324D01*
X3654762Y13902324D02*
X3559524Y13807086D01*
X3559524Y13807086D02*
X3464286Y13759467D01*
D10*
X487907419Y12238096D02*
X488716942Y12238096D01*
X488716942Y12238096D02*
X488812180Y12285715D01*
X488812180Y12285715D02*
X488859800Y12333334D01*
X488859800Y12333334D02*
X488907419Y12428572D01*
X488907419Y12428572D02*
X488907419Y12619048D01*
X488907419Y12619048D02*
X488859800Y12714286D01*
X488859800Y12714286D02*
X488812180Y12761905D01*
X488812180Y12761905D02*
X488716942Y12809524D01*
X488716942Y12809524D02*
X487907419Y12809524D01*
X488335990Y13428572D02*
X488288371Y13333334D01*
X488288371Y13333334D02*
X488240752Y13285715D01*
X488240752Y13285715D02*
X488145514Y13238096D01*
X488145514Y13238096D02*
X488097895Y13238096D01*
X488097895Y13238096D02*
X488002657Y13285715D01*
X488002657Y13285715D02*
X487955038Y13333334D01*
X487955038Y13333334D02*
X487907419Y13428572D01*
X487907419Y13428572D02*
X487907419Y13619048D01*
X487907419Y13619048D02*
X487955038Y13714286D01*
X487955038Y13714286D02*
X488002657Y13761905D01*
X488002657Y13761905D02*
X488097895Y13809524D01*
X488097895Y13809524D02*
X488145514Y13809524D01*
X488145514Y13809524D02*
X488240752Y13761905D01*
X488240752Y13761905D02*
X488288371Y13714286D01*
X488288371Y13714286D02*
X488335990Y13619048D01*
X488335990Y13619048D02*
X488335990Y13428572D01*
X488335990Y13428572D02*
X488383609Y13333334D01*
X488383609Y13333334D02*
X488431228Y13285715D01*
X488431228Y13285715D02*
X488526466Y13238096D01*
X488526466Y13238096D02*
X488716942Y13238096D01*
X488716942Y13238096D02*
X488812180Y13285715D01*
X488812180Y13285715D02*
X488859800Y13333334D01*
X488859800Y13333334D02*
X488907419Y13428572D01*
X488907419Y13428572D02*
X488907419Y13619048D01*
X488907419Y13619048D02*
X488859800Y13714286D01*
X488859800Y13714286D02*
X488812180Y13761905D01*
X488812180Y13761905D02*
X488716942Y13809524D01*
X488716942Y13809524D02*
X488526466Y13809524D01*
X488526466Y13809524D02*
X488431228Y13761905D01*
X488431228Y13761905D02*
X488383609Y13714286D01*
X488383609Y13714286D02*
X488335990Y13619048D01*
X10907419Y12738096D02*
X11716942Y12738096D01*
X11716942Y12738096D02*
X11812180Y12785715D01*
X11812180Y12785715D02*
X11859800Y12833334D01*
X11859800Y12833334D02*
X11907419Y12928572D01*
X11907419Y12928572D02*
X11907419Y13119048D01*
X11907419Y13119048D02*
X11859800Y13214286D01*
X11859800Y13214286D02*
X11812180Y13261905D01*
X11812180Y13261905D02*
X11716942Y13309524D01*
X11716942Y13309524D02*
X10907419Y13309524D01*
X11907419Y14309524D02*
X11907419Y13738096D01*
X11907419Y14023810D02*
X10907419Y14023810D01*
X10907419Y14023810D02*
X11050276Y13928572D01*
X11050276Y13928572D02*
X11145514Y13833334D01*
X11145514Y13833334D02*
X11193133Y13738096D01*
D11*
X258954819Y17333334D02*
X258478628Y17000001D01*
X258954819Y16761906D02*
X257954819Y16761906D01*
X257954819Y16761906D02*
X257954819Y17142858D01*
X257954819Y17142858D02*
X258002438Y17238096D01*
X258002438Y17238096D02*
X258050057Y17285715D01*
X258050057Y17285715D02*
X258145295Y17333334D01*
X258145295Y17333334D02*
X258288152Y17333334D01*
X258288152Y17333334D02*
X258383390Y17285715D01*
X258383390Y17285715D02*
X258431009Y17238096D01*
X258431009Y17238096D02*
X258478628Y17142858D01*
X258478628Y17142858D02*
X258478628Y16761906D01*
X258954819Y17809525D02*
X258954819Y18000001D01*
X258954819Y18000001D02*
X258907200Y18095239D01*
X258907200Y18095239D02*
X258859580Y18142858D01*
X258859580Y18142858D02*
X258716723Y18238096D01*
X258716723Y18238096D02*
X258526247Y18285715D01*
X258526247Y18285715D02*
X258145295Y18285715D01*
X258145295Y18285715D02*
X258050057Y18238096D01*
X258050057Y18238096D02*
X258002438Y18190477D01*
X258002438Y18190477D02*
X257954819Y18095239D01*
X257954819Y18095239D02*
X257954819Y17904763D01*
X257954819Y17904763D02*
X258002438Y17809525D01*
X258002438Y17809525D02*
X258050057Y17761906D01*
X258050057Y17761906D02*
X258145295Y17714287D01*
X258145295Y17714287D02*
X258383390Y17714287D01*
X258383390Y17714287D02*
X258478628Y17761906D01*
X258478628Y17761906D02*
X258526247Y17809525D01*
X258526247Y17809525D02*
X258573866Y17904763D01*
X258573866Y17904763D02*
X258573866Y18095239D01*
X258573866Y18095239D02*
X258526247Y18190477D01*
X258526247Y18190477D02*
X258478628Y18238096D01*
X258478628Y18238096D02*
X258383390Y18285715D01*
X261954819Y4857143D02*
X261478628Y4523810D01*
X261954819Y4285715D02*
X260954819Y4285715D01*
X260954819Y4285715D02*
X260954819Y4666667D01*
X260954819Y4666667D02*
X261002438Y4761905D01*
X261002438Y4761905D02*
X261050057Y4809524D01*
X261050057Y4809524D02*
X261145295Y4857143D01*
X261145295Y4857143D02*
X261288152Y4857143D01*
X261288152Y4857143D02*
X261383390Y4809524D01*
X261383390Y4809524D02*
X261431009Y4761905D01*
X261431009Y4761905D02*
X261478628Y4666667D01*
X261478628Y4666667D02*
X261478628Y4285715D01*
X261954819Y5809524D02*
X261954819Y5238096D01*
X261954819Y5523810D02*
X260954819Y5523810D01*
X260954819Y5523810D02*
X261097676Y5428572D01*
X261097676Y5428572D02*
X261192914Y5333334D01*
X261192914Y5333334D02*
X261240533Y5238096D01*
X261050057Y6190477D02*
X261002438Y6238096D01*
X261002438Y6238096D02*
X260954819Y6333334D01*
X260954819Y6333334D02*
X260954819Y6571429D01*
X260954819Y6571429D02*
X261002438Y6666667D01*
X261002438Y6666667D02*
X261050057Y6714286D01*
X261050057Y6714286D02*
X261145295Y6761905D01*
X261145295Y6761905D02*
X261240533Y6761905D01*
X261240533Y6761905D02*
X261383390Y6714286D01*
X261383390Y6714286D02*
X261954819Y6142858D01*
X261954819Y6142858D02*
X261954819Y6761905D01*
X246358333Y18070420D02*
X246310714Y18022800D01*
X246310714Y18022800D02*
X246167857Y17975181D01*
X246167857Y17975181D02*
X246072619Y17975181D01*
X246072619Y17975181D02*
X245929762Y18022800D01*
X245929762Y18022800D02*
X245834524Y18118039D01*
X245834524Y18118039D02*
X245786905Y18213277D01*
X245786905Y18213277D02*
X245739286Y18403753D01*
X245739286Y18403753D02*
X245739286Y18546610D01*
X245739286Y18546610D02*
X245786905Y18737086D01*
X245786905Y18737086D02*
X245834524Y18832324D01*
X245834524Y18832324D02*
X245929762Y18927562D01*
X245929762Y18927562D02*
X246072619Y18975181D01*
X246072619Y18975181D02*
X246167857Y18975181D01*
X246167857Y18975181D02*
X246310714Y18927562D01*
X246310714Y18927562D02*
X246358333Y18879943D01*
X247215476Y18641848D02*
X247215476Y17975181D01*
X246977381Y19022800D02*
X246739286Y18308515D01*
X246739286Y18308515D02*
X247358333Y18308515D01*
X255422142Y8140420D02*
X255374523Y8092800D01*
X255374523Y8092800D02*
X255231666Y8045181D01*
X255231666Y8045181D02*
X255136428Y8045181D01*
X255136428Y8045181D02*
X254993571Y8092800D01*
X254993571Y8092800D02*
X254898333Y8188039D01*
X254898333Y8188039D02*
X254850714Y8283277D01*
X254850714Y8283277D02*
X254803095Y8473753D01*
X254803095Y8473753D02*
X254803095Y8616610D01*
X254803095Y8616610D02*
X254850714Y8807086D01*
X254850714Y8807086D02*
X254898333Y8902324D01*
X254898333Y8902324D02*
X254993571Y8997562D01*
X254993571Y8997562D02*
X255136428Y9045181D01*
X255136428Y9045181D02*
X255231666Y9045181D01*
X255231666Y9045181D02*
X255374523Y8997562D01*
X255374523Y8997562D02*
X255422142Y8949943D01*
X256374523Y8045181D02*
X255803095Y8045181D01*
X256088809Y8045181D02*
X256088809Y9045181D01*
X256088809Y9045181D02*
X255993571Y8902324D01*
X255993571Y8902324D02*
X255898333Y8807086D01*
X255898333Y8807086D02*
X255803095Y8759467D01*
X256755476Y8949943D02*
X256803095Y8997562D01*
X256803095Y8997562D02*
X256898333Y9045181D01*
X256898333Y9045181D02*
X257136428Y9045181D01*
X257136428Y9045181D02*
X257231666Y8997562D01*
X257231666Y8997562D02*
X257279285Y8949943D01*
X257279285Y8949943D02*
X257326904Y8854705D01*
X257326904Y8854705D02*
X257326904Y8759467D01*
X257326904Y8759467D02*
X257279285Y8616610D01*
X257279285Y8616610D02*
X256707857Y8045181D01*
X256707857Y8045181D02*
X257326904Y8045181D01*
X250545180Y11738095D02*
X249735657Y11738095D01*
X249735657Y11738095D02*
X249640419Y11690476D01*
X249640419Y11690476D02*
X249592800Y11642857D01*
X249592800Y11642857D02*
X249545180Y11547619D01*
X249545180Y11547619D02*
X249545180Y11357143D01*
X249545180Y11357143D02*
X249592800Y11261905D01*
X249592800Y11261905D02*
X249640419Y11214286D01*
X249640419Y11214286D02*
X249735657Y11166667D01*
X249735657Y11166667D02*
X250545180Y11166667D01*
X249545180Y10166667D02*
X249545180Y10738095D01*
X249545180Y10452381D02*
X250545180Y10452381D01*
X250545180Y10452381D02*
X250402323Y10547619D01*
X250402323Y10547619D02*
X250307085Y10642857D01*
X250307085Y10642857D02*
X250259466Y10738095D01*
X250545180Y9547619D02*
X250545180Y9452381D01*
X250545180Y9452381D02*
X250497561Y9357143D01*
X250497561Y9357143D02*
X250449942Y9309524D01*
X250449942Y9309524D02*
X250354704Y9261905D01*
X250354704Y9261905D02*
X250164228Y9214286D01*
X250164228Y9214286D02*
X249926133Y9214286D01*
X249926133Y9214286D02*
X249735657Y9261905D01*
X249735657Y9261905D02*
X249640419Y9309524D01*
X249640419Y9309524D02*
X249592800Y9357143D01*
X249592800Y9357143D02*
X249545180Y9452381D01*
X249545180Y9452381D02*
X249545180Y9547619D01*
X249545180Y9547619D02*
X249592800Y9642857D01*
X249592800Y9642857D02*
X249640419Y9690476D01*
X249640419Y9690476D02*
X249735657Y9738095D01*
X249735657Y9738095D02*
X249926133Y9785714D01*
X249926133Y9785714D02*
X250164228Y9785714D01*
X250164228Y9785714D02*
X250354704Y9738095D01*
X250354704Y9738095D02*
X250449942Y9690476D01*
X250449942Y9690476D02*
X250497561Y9642857D01*
X250497561Y9642857D02*
X250545180Y9547619D01*
X87369958Y18070421D02*
X87322339Y18022801D01*
X87322339Y18022801D02*
X87179482Y17975182D01*
X87179482Y17975182D02*
X87084244Y17975182D01*
X87084244Y17975182D02*
X86941387Y18022801D01*
X86941387Y18022801D02*
X86846149Y18118040D01*
X86846149Y18118040D02*
X86798530Y18213278D01*
X86798530Y18213278D02*
X86750911Y18403754D01*
X86750911Y18403754D02*
X86750911Y18546611D01*
X86750911Y18546611D02*
X86798530Y18737087D01*
X86798530Y18737087D02*
X86846149Y18832325D01*
X86846149Y18832325D02*
X86941387Y18927563D01*
X86941387Y18927563D02*
X87084244Y18975182D01*
X87084244Y18975182D02*
X87179482Y18975182D01*
X87179482Y18975182D02*
X87322339Y18927563D01*
X87322339Y18927563D02*
X87369958Y18879944D01*
X87750911Y18879944D02*
X87798530Y18927563D01*
X87798530Y18927563D02*
X87893768Y18975182D01*
X87893768Y18975182D02*
X88131863Y18975182D01*
X88131863Y18975182D02*
X88227101Y18927563D01*
X88227101Y18927563D02*
X88274720Y18879944D01*
X88274720Y18879944D02*
X88322339Y18784706D01*
X88322339Y18784706D02*
X88322339Y18689468D01*
X88322339Y18689468D02*
X88274720Y18546611D01*
X88274720Y18546611D02*
X87703292Y17975182D01*
X87703292Y17975182D02*
X88322339Y17975182D01*
D10*
X564988095Y11542581D02*
X564988095Y10733058D01*
X564988095Y10733058D02*
X565035714Y10637820D01*
X565035714Y10637820D02*
X565083333Y10590200D01*
X565083333Y10590200D02*
X565178571Y10542581D01*
X565178571Y10542581D02*
X565369047Y10542581D01*
X565369047Y10542581D02*
X565464285Y10590200D01*
X565464285Y10590200D02*
X565511904Y10637820D01*
X565511904Y10637820D02*
X565559523Y10733058D01*
X565559523Y10733058D02*
X565559523Y11542581D01*
X566083333Y10542581D02*
X566273809Y10542581D01*
X566273809Y10542581D02*
X566369047Y10590200D01*
X566369047Y10590200D02*
X566416666Y10637820D01*
X566416666Y10637820D02*
X566511904Y10780677D01*
X566511904Y10780677D02*
X566559523Y10971153D01*
X566559523Y10971153D02*
X566559523Y11352105D01*
X566559523Y11352105D02*
X566511904Y11447343D01*
X566511904Y11447343D02*
X566464285Y11494962D01*
X566464285Y11494962D02*
X566369047Y11542581D01*
X566369047Y11542581D02*
X566178571Y11542581D01*
X566178571Y11542581D02*
X566083333Y11494962D01*
X566083333Y11494962D02*
X566035714Y11447343D01*
X566035714Y11447343D02*
X565988095Y11352105D01*
X565988095Y11352105D02*
X565988095Y11114010D01*
X565988095Y11114010D02*
X566035714Y11018772D01*
X566035714Y11018772D02*
X566083333Y10971153D01*
X566083333Y10971153D02*
X566178571Y10923534D01*
X566178571Y10923534D02*
X566369047Y10923534D01*
X566369047Y10923534D02*
X566464285Y10971153D01*
X566464285Y10971153D02*
X566511904Y11018772D01*
X566511904Y11018772D02*
X566559523Y11114010D01*
D11*
X243258333Y15115181D02*
X242925000Y15591372D01*
X242686905Y15115181D02*
X242686905Y16115181D01*
X242686905Y16115181D02*
X243067857Y16115181D01*
X243067857Y16115181D02*
X243163095Y16067562D01*
X243163095Y16067562D02*
X243210714Y16019943D01*
X243210714Y16019943D02*
X243258333Y15924705D01*
X243258333Y15924705D02*
X243258333Y15781848D01*
X243258333Y15781848D02*
X243210714Y15686610D01*
X243210714Y15686610D02*
X243163095Y15638991D01*
X243163095Y15638991D02*
X243067857Y15591372D01*
X243067857Y15591372D02*
X242686905Y15591372D01*
X244115476Y15781848D02*
X244115476Y15115181D01*
X243877381Y16162800D02*
X243639286Y15448515D01*
X243639286Y15448515D02*
X244258333Y15448515D01*
X271544990Y9945181D02*
X271211657Y10421372D01*
X270973562Y9945181D02*
X270973562Y10945181D01*
X270973562Y10945181D02*
X271354514Y10945181D01*
X271354514Y10945181D02*
X271449752Y10897562D01*
X271449752Y10897562D02*
X271497371Y10849943D01*
X271497371Y10849943D02*
X271544990Y10754705D01*
X271544990Y10754705D02*
X271544990Y10611848D01*
X271544990Y10611848D02*
X271497371Y10516610D01*
X271497371Y10516610D02*
X271449752Y10468991D01*
X271449752Y10468991D02*
X271354514Y10421372D01*
X271354514Y10421372D02*
X270973562Y10421372D01*
X271973562Y10468991D02*
X272306895Y10468991D01*
X272449752Y9945181D02*
X271973562Y9945181D01*
X271973562Y9945181D02*
X271973562Y10945181D01*
X271973562Y10945181D02*
X272449752Y10945181D01*
X273211657Y10468991D02*
X272878324Y10468991D01*
X272878324Y9945181D02*
X272878324Y10945181D01*
X272878324Y10945181D02*
X273354514Y10945181D01*
X273878324Y10945181D02*
X273878324Y10707086D01*
X273640229Y10802324D02*
X273878324Y10707086D01*
X273878324Y10707086D02*
X274116419Y10802324D01*
X273735467Y10516610D02*
X273878324Y10707086D01*
X273878324Y10707086D02*
X274021181Y10516610D01*
X274640229Y10945181D02*
X274640229Y10707086D01*
X274402134Y10802324D02*
X274640229Y10707086D01*
X274640229Y10707086D02*
X274878324Y10802324D01*
X274497372Y10516610D02*
X274640229Y10707086D01*
X274640229Y10707086D02*
X274783086Y10516610D01*
D10*
X328907419Y12738096D02*
X329716942Y12738096D01*
X329716942Y12738096D02*
X329812180Y12785715D01*
X329812180Y12785715D02*
X329859800Y12833334D01*
X329859800Y12833334D02*
X329907419Y12928572D01*
X329907419Y12928572D02*
X329907419Y13119048D01*
X329907419Y13119048D02*
X329859800Y13214286D01*
X329859800Y13214286D02*
X329812180Y13261905D01*
X329812180Y13261905D02*
X329716942Y13309524D01*
X329716942Y13309524D02*
X328907419Y13309524D01*
X328907419Y14214286D02*
X328907419Y14023810D01*
X328907419Y14023810D02*
X328955038Y13928572D01*
X328955038Y13928572D02*
X329002657Y13880953D01*
X329002657Y13880953D02*
X329145514Y13785715D01*
X329145514Y13785715D02*
X329335990Y13738096D01*
X329335990Y13738096D02*
X329716942Y13738096D01*
X329716942Y13738096D02*
X329812180Y13785715D01*
X329812180Y13785715D02*
X329859800Y13833334D01*
X329859800Y13833334D02*
X329907419Y13928572D01*
X329907419Y13928572D02*
X329907419Y14119048D01*
X329907419Y14119048D02*
X329859800Y14214286D01*
X329859800Y14214286D02*
X329812180Y14261905D01*
X329812180Y14261905D02*
X329716942Y14309524D01*
X329716942Y14309524D02*
X329478847Y14309524D01*
X329478847Y14309524D02*
X329383609Y14261905D01*
X329383609Y14261905D02*
X329335990Y14214286D01*
X329335990Y14214286D02*
X329288371Y14119048D01*
X329288371Y14119048D02*
X329288371Y13928572D01*
X329288371Y13928572D02*
X329335990Y13833334D01*
X329335990Y13833334D02*
X329383609Y13785715D01*
X329383609Y13785715D02*
X329478847Y13738096D01*
D11*
X325819958Y18070421D02*
X325772339Y18022801D01*
X325772339Y18022801D02*
X325629482Y17975182D01*
X325629482Y17975182D02*
X325534244Y17975182D01*
X325534244Y17975182D02*
X325391387Y18022801D01*
X325391387Y18022801D02*
X325296149Y18118040D01*
X325296149Y18118040D02*
X325248530Y18213278D01*
X325248530Y18213278D02*
X325200911Y18403754D01*
X325200911Y18403754D02*
X325200911Y18546611D01*
X325200911Y18546611D02*
X325248530Y18737087D01*
X325248530Y18737087D02*
X325296149Y18832325D01*
X325296149Y18832325D02*
X325391387Y18927563D01*
X325391387Y18927563D02*
X325534244Y18975182D01*
X325534244Y18975182D02*
X325629482Y18975182D01*
X325629482Y18975182D02*
X325772339Y18927563D01*
X325772339Y18927563D02*
X325819958Y18879944D01*
X326724720Y18975182D02*
X326248530Y18975182D01*
X326248530Y18975182D02*
X326200911Y18498992D01*
X326200911Y18498992D02*
X326248530Y18546611D01*
X326248530Y18546611D02*
X326343768Y18594230D01*
X326343768Y18594230D02*
X326581863Y18594230D01*
X326581863Y18594230D02*
X326677101Y18546611D01*
X326677101Y18546611D02*
X326724720Y18498992D01*
X326724720Y18498992D02*
X326772339Y18403754D01*
X326772339Y18403754D02*
X326772339Y18165659D01*
X326772339Y18165659D02*
X326724720Y18070421D01*
X326724720Y18070421D02*
X326677101Y18022801D01*
X326677101Y18022801D02*
X326581863Y17975182D01*
X326581863Y17975182D02*
X326343768Y17975182D01*
X326343768Y17975182D02*
X326248530Y18022801D01*
X326248530Y18022801D02*
X326200911Y18070421D01*
X260359580Y17833334D02*
X260407200Y17785715D01*
X260407200Y17785715D02*
X260454819Y17642858D01*
X260454819Y17642858D02*
X260454819Y17547620D01*
X260454819Y17547620D02*
X260407200Y17404763D01*
X260407200Y17404763D02*
X260311961Y17309525D01*
X260311961Y17309525D02*
X260216723Y17261906D01*
X260216723Y17261906D02*
X260026247Y17214287D01*
X260026247Y17214287D02*
X259883390Y17214287D01*
X259883390Y17214287D02*
X259692914Y17261906D01*
X259692914Y17261906D02*
X259597676Y17309525D01*
X259597676Y17309525D02*
X259502438Y17404763D01*
X259502438Y17404763D02*
X259454819Y17547620D01*
X259454819Y17547620D02*
X259454819Y17642858D01*
X259454819Y17642858D02*
X259502438Y17785715D01*
X259502438Y17785715D02*
X259550057Y17833334D01*
X260454819Y18309525D02*
X260454819Y18500001D01*
X260454819Y18500001D02*
X260407200Y18595239D01*
X260407200Y18595239D02*
X260359580Y18642858D01*
X260359580Y18642858D02*
X260216723Y18738096D01*
X260216723Y18738096D02*
X260026247Y18785715D01*
X260026247Y18785715D02*
X259645295Y18785715D01*
X259645295Y18785715D02*
X259550057Y18738096D01*
X259550057Y18738096D02*
X259502438Y18690477D01*
X259502438Y18690477D02*
X259454819Y18595239D01*
X259454819Y18595239D02*
X259454819Y18404763D01*
X259454819Y18404763D02*
X259502438Y18309525D01*
X259502438Y18309525D02*
X259550057Y18261906D01*
X259550057Y18261906D02*
X259645295Y18214287D01*
X259645295Y18214287D02*
X259883390Y18214287D01*
X259883390Y18214287D02*
X259978628Y18261906D01*
X259978628Y18261906D02*
X260026247Y18309525D01*
X260026247Y18309525D02*
X260073866Y18404763D01*
X260073866Y18404763D02*
X260073866Y18595239D01*
X260073866Y18595239D02*
X260026247Y18690477D01*
X260026247Y18690477D02*
X259978628Y18738096D01*
X259978628Y18738096D02*
X259883390Y18785715D01*
X83583333Y13545181D02*
X83250000Y14021372D01*
X83011905Y13545181D02*
X83011905Y14545181D01*
X83011905Y14545181D02*
X83392857Y14545181D01*
X83392857Y14545181D02*
X83488095Y14497562D01*
X83488095Y14497562D02*
X83535714Y14449943D01*
X83535714Y14449943D02*
X83583333Y14354705D01*
X83583333Y14354705D02*
X83583333Y14211848D01*
X83583333Y14211848D02*
X83535714Y14116610D01*
X83535714Y14116610D02*
X83488095Y14068991D01*
X83488095Y14068991D02*
X83392857Y14021372D01*
X83392857Y14021372D02*
X83011905Y14021372D01*
X83964286Y14449943D02*
X84011905Y14497562D01*
X84011905Y14497562D02*
X84107143Y14545181D01*
X84107143Y14545181D02*
X84345238Y14545181D01*
X84345238Y14545181D02*
X84440476Y14497562D01*
X84440476Y14497562D02*
X84488095Y14449943D01*
X84488095Y14449943D02*
X84535714Y14354705D01*
X84535714Y14354705D02*
X84535714Y14259467D01*
X84535714Y14259467D02*
X84488095Y14116610D01*
X84488095Y14116610D02*
X83916667Y13545181D01*
X83916667Y13545181D02*
X84535714Y13545181D01*
X564319958Y18070421D02*
X564272339Y18022801D01*
X564272339Y18022801D02*
X564129482Y17975182D01*
X564129482Y17975182D02*
X564034244Y17975182D01*
X564034244Y17975182D02*
X563891387Y18022801D01*
X563891387Y18022801D02*
X563796149Y18118040D01*
X563796149Y18118040D02*
X563748530Y18213278D01*
X563748530Y18213278D02*
X563700911Y18403754D01*
X563700911Y18403754D02*
X563700911Y18546611D01*
X563700911Y18546611D02*
X563748530Y18737087D01*
X563748530Y18737087D02*
X563796149Y18832325D01*
X563796149Y18832325D02*
X563891387Y18927563D01*
X563891387Y18927563D02*
X564034244Y18975182D01*
X564034244Y18975182D02*
X564129482Y18975182D01*
X564129482Y18975182D02*
X564272339Y18927563D01*
X564272339Y18927563D02*
X564319958Y18879944D01*
X564891387Y18546611D02*
X564796149Y18594230D01*
X564796149Y18594230D02*
X564748530Y18641849D01*
X564748530Y18641849D02*
X564700911Y18737087D01*
X564700911Y18737087D02*
X564700911Y18784706D01*
X564700911Y18784706D02*
X564748530Y18879944D01*
X564748530Y18879944D02*
X564796149Y18927563D01*
X564796149Y18927563D02*
X564891387Y18975182D01*
X564891387Y18975182D02*
X565081863Y18975182D01*
X565081863Y18975182D02*
X565177101Y18927563D01*
X565177101Y18927563D02*
X565224720Y18879944D01*
X565224720Y18879944D02*
X565272339Y18784706D01*
X565272339Y18784706D02*
X565272339Y18737087D01*
X565272339Y18737087D02*
X565224720Y18641849D01*
X565224720Y18641849D02*
X565177101Y18594230D01*
X565177101Y18594230D02*
X565081863Y18546611D01*
X565081863Y18546611D02*
X564891387Y18546611D01*
X564891387Y18546611D02*
X564796149Y18498992D01*
X564796149Y18498992D02*
X564748530Y18451373D01*
X564748530Y18451373D02*
X564700911Y18356135D01*
X564700911Y18356135D02*
X564700911Y18165659D01*
X564700911Y18165659D02*
X564748530Y18070421D01*
X564748530Y18070421D02*
X564796149Y18022801D01*
X564796149Y18022801D02*
X564891387Y17975182D01*
X564891387Y17975182D02*
X565081863Y17975182D01*
X565081863Y17975182D02*
X565177101Y18022801D01*
X565177101Y18022801D02*
X565224720Y18070421D01*
X565224720Y18070421D02*
X565272339Y18165659D01*
X565272339Y18165659D02*
X565272339Y18356135D01*
X565272339Y18356135D02*
X565224720Y18451373D01*
X565224720Y18451373D02*
X565177101Y18498992D01*
X565177101Y18498992D02*
X565081863Y18546611D01*
D10*
X90407419Y12738096D02*
X91216942Y12738096D01*
X91216942Y12738096D02*
X91312180Y12785715D01*
X91312180Y12785715D02*
X91359800Y12833334D01*
X91359800Y12833334D02*
X91407419Y12928572D01*
X91407419Y12928572D02*
X91407419Y13119048D01*
X91407419Y13119048D02*
X91359800Y13214286D01*
X91359800Y13214286D02*
X91312180Y13261905D01*
X91312180Y13261905D02*
X91216942Y13309524D01*
X91216942Y13309524D02*
X90407419Y13309524D01*
X90407419Y13690477D02*
X90407419Y14309524D01*
X90407419Y14309524D02*
X90788371Y13976191D01*
X90788371Y13976191D02*
X90788371Y14119048D01*
X90788371Y14119048D02*
X90835990Y14214286D01*
X90835990Y14214286D02*
X90883609Y14261905D01*
X90883609Y14261905D02*
X90978847Y14309524D01*
X90978847Y14309524D02*
X91216942Y14309524D01*
X91216942Y14309524D02*
X91312180Y14261905D01*
X91312180Y14261905D02*
X91359800Y14214286D01*
X91359800Y14214286D02*
X91407419Y14119048D01*
X91407419Y14119048D02*
X91407419Y13833334D01*
X91407419Y13833334D02*
X91359800Y13738096D01*
X91359800Y13738096D02*
X91312180Y13690477D01*
D11*
X405319958Y18070421D02*
X405272339Y18022801D01*
X405272339Y18022801D02*
X405129482Y17975182D01*
X405129482Y17975182D02*
X405034244Y17975182D01*
X405034244Y17975182D02*
X404891387Y18022801D01*
X404891387Y18022801D02*
X404796149Y18118040D01*
X404796149Y18118040D02*
X404748530Y18213278D01*
X404748530Y18213278D02*
X404700911Y18403754D01*
X404700911Y18403754D02*
X404700911Y18546611D01*
X404700911Y18546611D02*
X404748530Y18737087D01*
X404748530Y18737087D02*
X404796149Y18832325D01*
X404796149Y18832325D02*
X404891387Y18927563D01*
X404891387Y18927563D02*
X405034244Y18975182D01*
X405034244Y18975182D02*
X405129482Y18975182D01*
X405129482Y18975182D02*
X405272339Y18927563D01*
X405272339Y18927563D02*
X405319958Y18879944D01*
X406177101Y18975182D02*
X405986625Y18975182D01*
X405986625Y18975182D02*
X405891387Y18927563D01*
X405891387Y18927563D02*
X405843768Y18879944D01*
X405843768Y18879944D02*
X405748530Y18737087D01*
X405748530Y18737087D02*
X405700911Y18546611D01*
X405700911Y18546611D02*
X405700911Y18165659D01*
X405700911Y18165659D02*
X405748530Y18070421D01*
X405748530Y18070421D02*
X405796149Y18022801D01*
X405796149Y18022801D02*
X405891387Y17975182D01*
X405891387Y17975182D02*
X406081863Y17975182D01*
X406081863Y17975182D02*
X406177101Y18022801D01*
X406177101Y18022801D02*
X406224720Y18070421D01*
X406224720Y18070421D02*
X406272339Y18165659D01*
X406272339Y18165659D02*
X406272339Y18403754D01*
X406272339Y18403754D02*
X406224720Y18498992D01*
X406224720Y18498992D02*
X406177101Y18546611D01*
X406177101Y18546611D02*
X406081863Y18594230D01*
X406081863Y18594230D02*
X405891387Y18594230D01*
X405891387Y18594230D02*
X405796149Y18546611D01*
X405796149Y18546611D02*
X405748530Y18498992D01*
X405748530Y18498992D02*
X405700911Y18403754D01*
X7869958Y18070421D02*
X7822339Y18022801D01*
X7822339Y18022801D02*
X7679482Y17975182D01*
X7679482Y17975182D02*
X7584244Y17975182D01*
X7584244Y17975182D02*
X7441387Y18022801D01*
X7441387Y18022801D02*
X7346149Y18118040D01*
X7346149Y18118040D02*
X7298530Y18213278D01*
X7298530Y18213278D02*
X7250911Y18403754D01*
X7250911Y18403754D02*
X7250911Y18546611D01*
X7250911Y18546611D02*
X7298530Y18737087D01*
X7298530Y18737087D02*
X7346149Y18832325D01*
X7346149Y18832325D02*
X7441387Y18927563D01*
X7441387Y18927563D02*
X7584244Y18975182D01*
X7584244Y18975182D02*
X7679482Y18975182D01*
X7679482Y18975182D02*
X7822339Y18927563D01*
X7822339Y18927563D02*
X7869958Y18879944D01*
X8822339Y17975182D02*
X8250911Y17975182D01*
X8536625Y17975182D02*
X8536625Y18975182D01*
X8536625Y18975182D02*
X8441387Y18832325D01*
X8441387Y18832325D02*
X8346149Y18737087D01*
X8346149Y18737087D02*
X8250911Y18689468D01*
X484819958Y17570421D02*
X484772339Y17522801D01*
X484772339Y17522801D02*
X484629482Y17475182D01*
X484629482Y17475182D02*
X484534244Y17475182D01*
X484534244Y17475182D02*
X484391387Y17522801D01*
X484391387Y17522801D02*
X484296149Y17618040D01*
X484296149Y17618040D02*
X484248530Y17713278D01*
X484248530Y17713278D02*
X484200911Y17903754D01*
X484200911Y17903754D02*
X484200911Y18046611D01*
X484200911Y18046611D02*
X484248530Y18237087D01*
X484248530Y18237087D02*
X484296149Y18332325D01*
X484296149Y18332325D02*
X484391387Y18427563D01*
X484391387Y18427563D02*
X484534244Y18475182D01*
X484534244Y18475182D02*
X484629482Y18475182D01*
X484629482Y18475182D02*
X484772339Y18427563D01*
X484772339Y18427563D02*
X484819958Y18379944D01*
X485153292Y18475182D02*
X485819958Y18475182D01*
X485819958Y18475182D02*
X485391387Y17475182D01*
X166869958Y18320421D02*
X166822339Y18272801D01*
X166822339Y18272801D02*
X166679482Y18225182D01*
X166679482Y18225182D02*
X166584244Y18225182D01*
X166584244Y18225182D02*
X166441387Y18272801D01*
X166441387Y18272801D02*
X166346149Y18368040D01*
X166346149Y18368040D02*
X166298530Y18463278D01*
X166298530Y18463278D02*
X166250911Y18653754D01*
X166250911Y18653754D02*
X166250911Y18796611D01*
X166250911Y18796611D02*
X166298530Y18987087D01*
X166298530Y18987087D02*
X166346149Y19082325D01*
X166346149Y19082325D02*
X166441387Y19177563D01*
X166441387Y19177563D02*
X166584244Y19225182D01*
X166584244Y19225182D02*
X166679482Y19225182D01*
X166679482Y19225182D02*
X166822339Y19177563D01*
X166822339Y19177563D02*
X166869958Y19129944D01*
X167203292Y19225182D02*
X167822339Y19225182D01*
X167822339Y19225182D02*
X167489006Y18844230D01*
X167489006Y18844230D02*
X167631863Y18844230D01*
X167631863Y18844230D02*
X167727101Y18796611D01*
X167727101Y18796611D02*
X167774720Y18748992D01*
X167774720Y18748992D02*
X167822339Y18653754D01*
X167822339Y18653754D02*
X167822339Y18415659D01*
X167822339Y18415659D02*
X167774720Y18320421D01*
X167774720Y18320421D02*
X167727101Y18272801D01*
X167727101Y18272801D02*
X167631863Y18225182D01*
X167631863Y18225182D02*
X167346149Y18225182D01*
X167346149Y18225182D02*
X167250911Y18272801D01*
X167250911Y18272801D02*
X167203292Y18320421D01*
D12*
%TO.C,C13*%
X253755580Y18510000D02*
X253474420Y18510000D01*
X253755580Y17490000D02*
X253474420Y17490000D01*
%TO.C,R14*%
X266977500Y12937742D02*
X266977500Y13412258D01*
X268022500Y12937742D02*
X268022500Y13412258D01*
D13*
%TO.C,U7*%
X403250000Y12000000D02*
X403250000Y15000000D01*
X407250000Y15000000D02*
X403250000Y15000000D01*
X407250000Y12000000D02*
X403250000Y12000000D01*
X407250000Y12000000D02*
X407250000Y15000000D01*
D14*
X403050000Y15000000D02*
G75*
G02*
X402850000Y15000000I-100000J0D01*
G01*
X402850000Y15000000D02*
G75*
G02*
X403050000Y15000000I100000J0D01*
G01*
D13*
%TO.C,U5*%
X244250000Y12000000D02*
X244250000Y15000000D01*
X248250000Y15000000D02*
X244250000Y15000000D01*
X248250000Y12000000D02*
X244250000Y12000000D01*
X248250000Y12000000D02*
X248250000Y15000000D01*
D14*
X244050000Y15000000D02*
G75*
G02*
X243850000Y15000000I-100000J0D01*
G01*
X243850000Y15000000D02*
G75*
G02*
X244050000Y15000000I100000J0D01*
G01*
D12*
%TO.C,C11*%
X260990000Y16584420D02*
X260990000Y16865580D01*
X262010000Y16584420D02*
X262010000Y16865580D01*
D13*
%TO.C,U4*%
X164750000Y12250000D02*
X164750000Y15250000D01*
X168750000Y15250000D02*
X164750000Y15250000D01*
X168750000Y12250000D02*
X164750000Y12250000D01*
X168750000Y12250000D02*
X168750000Y15250000D01*
D14*
X164550000Y15250000D02*
G75*
G02*
X164350000Y15250000I-100000J0D01*
G01*
X164350000Y15250000D02*
G75*
G02*
X164550000Y15250000I100000J0D01*
G01*
D12*
%TO.C,J1*%
X268848810Y16830000D02*
X268848810Y11630000D01*
X317168810Y16830000D02*
X268848810Y16830000D01*
X317168810Y16830000D02*
X317168810Y14230000D01*
X317168810Y14230000D02*
X319768810Y14230000D01*
X318438810Y16830000D02*
X319768810Y16830000D01*
X319768810Y16830000D02*
X319768810Y15500000D01*
X319768810Y14230000D02*
X319768810Y11630000D01*
X319768810Y11630000D02*
X268848810Y11630000D01*
%TO.C,R6*%
X402662258Y17522501D02*
X402187742Y17522501D01*
X402662258Y16477501D02*
X402187742Y16477501D01*
%TO.C,R8*%
X561673883Y17522501D02*
X561199367Y17522501D01*
X561673883Y16477501D02*
X561199367Y16477501D01*
%TO.C,R13*%
X264477500Y8987258D02*
X264477500Y8512742D01*
X265522500Y8987258D02*
X265522500Y8512742D01*
%TO.C,R3*%
X164173883Y17772501D02*
X163699367Y17772501D01*
X164173883Y16727501D02*
X163699367Y16727501D01*
%TO.C,R5*%
X323173883Y17522501D02*
X322699367Y17522501D01*
X323173883Y16477501D02*
X322699367Y16477501D01*
%TO.C,U2*%
X261613800Y14300000D02*
X261613800Y13886000D01*
X261613800Y11200000D02*
X261613800Y11614000D01*
X262027800Y14300000D02*
X261613800Y14300000D01*
X262027800Y11200000D02*
X261613800Y11200000D01*
X264299800Y14300000D02*
X264713800Y14300000D01*
X264299800Y11200000D02*
X264713800Y11200000D01*
X264713800Y14300000D02*
X264713800Y13886000D01*
X264713800Y11200000D02*
X264713800Y11614000D01*
D15*
X261902800Y10696000D02*
G75*
G02*
X261652800Y10696000I-125000J0D01*
G01*
X261652800Y10696000D02*
G75*
G02*
X261902800Y10696000I125000J0D01*
G01*
D12*
%TO.C,C10*%
X259509200Y11140580D02*
X259509200Y10859420D01*
X260529200Y11140580D02*
X260529200Y10859420D01*
%TO.C,C14*%
X253205580Y10510000D02*
X252924420Y10510000D01*
X253205580Y9490000D02*
X252924420Y9490000D01*
%TO.C,R7*%
X482162258Y17022501D02*
X481687742Y17022501D01*
X482162258Y15977501D02*
X481687742Y15977501D01*
%TO.C,R1*%
X5162258Y17522500D02*
X4687742Y17522500D01*
X5162258Y16477500D02*
X4687742Y16477500D01*
D13*
%TO.C,U8*%
X482750000Y11500000D02*
X482750000Y14500000D01*
X486750000Y14500000D02*
X482750000Y14500000D01*
X486750000Y11500000D02*
X482750000Y11500000D01*
X486750000Y11500000D02*
X486750000Y14500000D01*
D14*
X482550000Y14500000D02*
G75*
G02*
X482350000Y14500000I-100000J0D01*
G01*
X482350000Y14500000D02*
G75*
G02*
X482550000Y14500000I100000J0D01*
G01*
D13*
%TO.C,U1*%
X5750000Y12000000D02*
X5750000Y15000000D01*
X9750000Y15000000D02*
X5750000Y15000000D01*
X9750000Y12000000D02*
X5750000Y12000000D01*
X9750000Y12000000D02*
X9750000Y15000000D01*
D14*
X5550000Y15000000D02*
G75*
G02*
X5350000Y15000000I-100000J0D01*
G01*
X5350000Y15000000D02*
G75*
G02*
X5550000Y15000000I100000J0D01*
G01*
D12*
%TO.C,R9*%
X257946700Y13912258D02*
X257946700Y13437742D01*
X258991700Y13912258D02*
X258991700Y13437742D01*
%TO.C,R12*%
X260977500Y8987258D02*
X260977500Y8512742D01*
X262022500Y8987258D02*
X262022500Y8512742D01*
%TO.C,C4*%
X246384420Y17510000D02*
X246665580Y17510000D01*
X246384420Y16490000D02*
X246665580Y16490000D01*
%TO.C,C12*%
X255924420Y10510000D02*
X256205580Y10510000D01*
X255924420Y9490000D02*
X256205580Y9490000D01*
D11*
%TO.C,U10*%
X252000000Y16500000D02*
X252000000Y15832915D01*
X252000000Y16500000D02*
X252667085Y16500000D01*
X252000000Y12167085D02*
X252000000Y11500000D01*
X252000000Y11500000D02*
X252667085Y11500000D01*
X256332915Y16500000D02*
X257000000Y16500000D01*
X256332915Y11500000D02*
X257000000Y11500000D01*
X257000000Y16500000D02*
X257000000Y15832915D01*
X257000000Y12167085D02*
X257000000Y11500000D01*
D15*
X255925001Y17529109D02*
G75*
G02*
X255674999Y17529109I-125001J0D01*
G01*
X255674999Y17529109D02*
G75*
G02*
X255925001Y17529109I125001J0D01*
G01*
D12*
%TO.C,C2*%
X87396045Y17510001D02*
X87677205Y17510001D01*
X87396045Y16490001D02*
X87677205Y16490001D01*
D13*
%TO.C,U9*%
X562250000Y12000000D02*
X562250000Y15000000D01*
X566250000Y15000000D02*
X562250000Y15000000D01*
X566250000Y12000000D02*
X562250000Y12000000D01*
X566250000Y12000000D02*
X566250000Y15000000D01*
D14*
X562050000Y15000000D02*
G75*
G02*
X561850000Y15000000I-100000J0D01*
G01*
X561850000Y15000000D02*
G75*
G02*
X562050000Y15000000I100000J0D01*
G01*
D12*
%TO.C,R4*%
X243662258Y17522500D02*
X243187742Y17522500D01*
X243662258Y16477500D02*
X243187742Y16477500D01*
D13*
%TO.C,U6*%
X323750000Y12000000D02*
X323750000Y15000000D01*
X327750000Y15000000D02*
X323750000Y15000000D01*
X327750000Y12000000D02*
X323750000Y12000000D01*
X327750000Y12000000D02*
X327750000Y15000000D01*
D14*
X323550000Y15000000D02*
G75*
G02*
X323350000Y15000000I-100000J0D01*
G01*
X323350000Y15000000D02*
G75*
G02*
X323550000Y15000000I100000J0D01*
G01*
D12*
%TO.C,C5*%
X325846045Y17510001D02*
X326127205Y17510001D01*
X325846045Y16490001D02*
X326127205Y16490001D01*
%TO.C,C9*%
X259509200Y14134420D02*
X259509200Y14415580D01*
X260529200Y14134420D02*
X260529200Y14415580D01*
%TO.C,R2*%
X84673883Y17522501D02*
X84199367Y17522501D01*
X84673883Y16477501D02*
X84199367Y16477501D01*
%TO.C,C8*%
X564346045Y17510001D02*
X564627205Y17510001D01*
X564346045Y16490001D02*
X564627205Y16490001D01*
D13*
%TO.C,U3*%
X85250000Y12000000D02*
X85250000Y15000000D01*
X89250000Y15000000D02*
X85250000Y15000000D01*
X89250000Y12000000D02*
X85250000Y12000000D01*
X89250000Y12000000D02*
X89250000Y15000000D01*
D14*
X85050000Y15000000D02*
G75*
G02*
X84850000Y15000000I-100000J0D01*
G01*
X84850000Y15000000D02*
G75*
G02*
X85050000Y15000000I100000J0D01*
G01*
D12*
%TO.C,C6*%
X405346045Y17510001D02*
X405627205Y17510001D01*
X405346045Y16490001D02*
X405627205Y16490001D01*
%TO.C,C1*%
X7896045Y17510001D02*
X8177205Y17510001D01*
X7896045Y16490001D02*
X8177205Y16490001D01*
%TO.C,C7*%
X484846045Y17010001D02*
X485127205Y17010001D01*
X484846045Y15990001D02*
X485127205Y15990001D01*
%TO.C,C3*%
X166896045Y17760001D02*
X167177205Y17760001D01*
X166896045Y16740001D02*
X167177205Y16740001D01*
%TD*%
%LPC*%
D16*
%TO.C,REF\u002A\u002A*%
X386000000Y14500000D03*
%TD*%
%TO.C,REF\u002A\u002A*%
X186000000Y14500000D03*
%TD*%
D17*
%TO.C,C13*%
X254390000Y18000000D03*
X252840000Y18000000D03*
%TD*%
D18*
%TO.C,R14*%
X267500000Y12350000D03*
X267500000Y14000000D03*
%TD*%
D19*
%TO.C,REF\u002A\u002A*%
X299126451Y7500000D03*
%TD*%
D20*
%TO.C,U7*%
X405950000Y13500000D03*
D21*
X403750000Y14350000D03*
X404450000Y14350000D03*
X403750000Y12650000D03*
X404450000Y12650000D03*
D22*
X405170000Y13500000D03*
%TD*%
D20*
%TO.C,U5*%
X246950000Y13500000D03*
D21*
X244750000Y14350000D03*
X245450000Y14350000D03*
X244750000Y12650000D03*
X245450000Y12650000D03*
D22*
X246170000Y13500000D03*
%TD*%
D23*
%TO.C,C11*%
X261500000Y15950000D03*
X261500000Y17500000D03*
%TD*%
D20*
%TO.C,U4*%
X167450000Y13750000D03*
D21*
X165250000Y14600000D03*
X165950000Y14600000D03*
X165250000Y12900000D03*
X165950000Y12900000D03*
D22*
X166670000Y13750000D03*
%TD*%
D19*
%TO.C,REF\u002A\u002A*%
X317500000Y3000000D03*
%TD*%
D24*
%TO.C,J1*%
X318438810Y15500000D03*
D25*
X318438810Y12960000D03*
X315898810Y15500000D03*
X315898810Y12960000D03*
X313358810Y15500000D03*
X313358810Y12960000D03*
X310818810Y15500000D03*
X310818810Y12960000D03*
X308278810Y15500000D03*
X308278810Y12960000D03*
X305738810Y15500000D03*
X305738810Y12960000D03*
X303198810Y15500000D03*
X303198810Y12960000D03*
X300658810Y15500000D03*
X300658810Y12960000D03*
X298118810Y15500000D03*
X298118810Y12960000D03*
X295578810Y15500000D03*
X295578810Y12960000D03*
X293038810Y15500000D03*
X293038810Y12960000D03*
X290498810Y15500000D03*
X290498810Y12960000D03*
X287958810Y15500000D03*
X287958810Y12960000D03*
X285418810Y15500000D03*
X285418810Y12960000D03*
X282878810Y15500000D03*
X282878810Y12960000D03*
X280338810Y15500000D03*
X280338810Y12960000D03*
X277798810Y15500000D03*
X277798810Y12960000D03*
X275258810Y15500000D03*
X275258810Y12960000D03*
X272718810Y15500000D03*
X272718810Y12960000D03*
X270178810Y15500000D03*
X270178810Y12960000D03*
%TD*%
D26*
%TO.C,R6*%
X403250000Y17000001D03*
X401600000Y17000001D03*
%TD*%
D19*
%TO.C,REF\u002A\u002A*%
X254500000Y3000000D03*
%TD*%
D26*
%TO.C,R8*%
X562261625Y17000001D03*
X560611625Y17000001D03*
%TD*%
D27*
%TO.C,R13*%
X265000000Y9575000D03*
X265000000Y7925000D03*
%TD*%
D26*
%TO.C,R3*%
X164761625Y17250001D03*
X163111625Y17250001D03*
%TD*%
%TO.C,R5*%
X323761625Y17000001D03*
X322111625Y17000001D03*
%TD*%
D28*
%TO.C,U2*%
X262413800Y11265400D03*
X262913800Y11265400D03*
X263413800Y11265400D03*
X263913800Y11265400D03*
D29*
X264648400Y12000000D03*
X264648400Y12500000D03*
X264648400Y13000000D03*
X264648400Y13500000D03*
D28*
X263913800Y14234600D03*
X263413800Y14234600D03*
X262913800Y14234600D03*
X262413800Y14234600D03*
D29*
X261679200Y13500000D03*
X261679200Y13000000D03*
X261679200Y12500000D03*
X261679200Y12000000D03*
D30*
X263163800Y12750000D03*
%TD*%
D31*
%TO.C,C10*%
X260019200Y11775000D03*
X260019200Y10225000D03*
%TD*%
D17*
%TO.C,C14*%
X253840000Y10000000D03*
X252290000Y10000000D03*
%TD*%
D26*
%TO.C,R7*%
X482750000Y16500001D03*
X481100000Y16500001D03*
%TD*%
%TO.C,R1*%
X5750000Y17000000D03*
X4100000Y17000000D03*
%TD*%
D20*
%TO.C,U8*%
X485450000Y13000000D03*
D21*
X483250000Y13850000D03*
X483950000Y13850000D03*
X483250000Y12150000D03*
X483950000Y12150000D03*
D22*
X484670000Y13000000D03*
%TD*%
D20*
%TO.C,U1*%
X8450000Y13500000D03*
D21*
X6250000Y14350000D03*
X6950000Y14350000D03*
X6250000Y12650000D03*
X6950000Y12650000D03*
D22*
X7670000Y13500000D03*
%TD*%
D27*
%TO.C,R9*%
X258469200Y14500000D03*
X258469200Y12850000D03*
%TD*%
%TO.C,R12*%
X261500000Y9575000D03*
X261500000Y7925000D03*
%TD*%
D32*
%TO.C,C4*%
X245750000Y17000000D03*
X247300000Y17000000D03*
%TD*%
%TO.C,C12*%
X255290000Y10000000D03*
X256840000Y10000000D03*
%TD*%
D33*
%TO.C,U10*%
X255800000Y16375550D03*
X255149999Y16375550D03*
X254500000Y16375550D03*
X253849999Y16375550D03*
X253200000Y16375550D03*
D34*
X252124450Y15300000D03*
X252124450Y14649999D03*
X252124450Y14000000D03*
X252124450Y13349999D03*
X252124450Y12700000D03*
D33*
X253200000Y11624450D03*
X253849999Y11624450D03*
X254500000Y11624450D03*
X255149999Y11624450D03*
X255800000Y11624450D03*
D34*
X256875550Y12700000D03*
X256875550Y13349999D03*
X256875550Y14000000D03*
X256875550Y14649999D03*
X256875550Y15300000D03*
D35*
X254500000Y14000000D03*
%TD*%
D32*
%TO.C,C2*%
X86761625Y17000001D03*
X88311625Y17000001D03*
%TD*%
D20*
%TO.C,U9*%
X564950000Y13500000D03*
D21*
X562750000Y14350000D03*
X563450000Y14350000D03*
X562750000Y12650000D03*
X563450000Y12650000D03*
D22*
X564170000Y13500000D03*
%TD*%
D26*
%TO.C,R4*%
X244250000Y17000000D03*
X242600000Y17000000D03*
%TD*%
D19*
%TO.C,REF\u002A\u002A*%
X272878324Y7500000D03*
%TD*%
D20*
%TO.C,U6*%
X326450000Y13500000D03*
D21*
X324250000Y14350000D03*
X324950000Y14350000D03*
X324250000Y12650000D03*
X324950000Y12650000D03*
D22*
X325670000Y13500000D03*
%TD*%
D32*
%TO.C,C5*%
X325211625Y17000001D03*
X326761625Y17000001D03*
%TD*%
D23*
%TO.C,C9*%
X260019200Y13500000D03*
X260019200Y15050000D03*
%TD*%
D26*
%TO.C,R2*%
X85261625Y17000001D03*
X83611625Y17000001D03*
%TD*%
D32*
%TO.C,C8*%
X563711625Y17000001D03*
X565261625Y17000001D03*
%TD*%
D20*
%TO.C,U3*%
X87950000Y13500000D03*
D21*
X85750000Y14350000D03*
X86450000Y14350000D03*
X85750000Y12650000D03*
X86450000Y12650000D03*
D22*
X87170000Y13500000D03*
%TD*%
D32*
%TO.C,C6*%
X404711625Y17000001D03*
X406261625Y17000001D03*
%TD*%
%TO.C,C1*%
X7261625Y17000001D03*
X8811625Y17000001D03*
%TD*%
%TO.C,C7*%
X484211625Y16500001D03*
X485761625Y16500001D03*
%TD*%
%TO.C,C3*%
X166261625Y17250001D03*
X167811625Y17250001D03*
%TD*%
%LPD*%
M02*
