M48
; DRILL file {KiCad 9.0.1-9.0.1-0~ubuntu22.04.1} date 2025-06-21T17:42:36+0200
; FORMAT={-:-/ absolute / inch / decimal}
; #@! TF.CreationDate,2025-06-21T17:42:36+02:00
; #@! TF.GenerationSoftware,Kicad,Pcbnew,9.0.1-9.0.1-0~ubuntu22.04.1
; #@! TF.FileFunction,Plated,1,2,Blind
FMAT,2
INCH
; #@! TA.AperFunction,Plated,Buried,ViaDrill
T1C0.0118
%
G90
G05
T1
X0.3937Y0.6693
X0.4331Y0.5315
X3.4055Y0.4232
X3.5236Y0.6693
X3.563Y0.5315
X6.6535Y0.6791
X6.6929Y0.5413
X9.6654Y0.4232
X9.7835Y0.6693
X9.8228Y0.5315
X9.8669Y0.5768
X9.8689Y0.5
X9.9004Y0.7087
X9.92Y0.4331
X10.0197Y0.5512
X10.1563Y0.4331
X10.1956Y0.4331
X10.237Y0.628
X10.3346Y0.689
X10.3608Y0.502
X12.9134Y0.6693
X12.9528Y0.5315
X15.9252Y0.4232
X16.0433Y0.6693
X16.0827Y0.5315
X19.1732Y0.6496
X19.2126Y0.5118
X22.185Y0.4232
X22.3031Y0.6693
X22.3425Y0.5315
M30
