%TF.GenerationSoftware,KiCad,Pcbnew,9.0.1-9.0.1-0~ubuntu22.04.1*%
%TF.CreationDate,2025-06-21T17:42:36+02:00*%
%TF.ProjectId,recorder,7265636f-7264-4657-922e-6b696361645f,rev?*%
%TF.SameCoordinates,Original*%
%TF.FileFunction,Soldermask,Bot*%
%TF.FilePolarity,Negative*%
%FSLAX46Y46*%
G04 Gerber Fmt 4.6, Leading zero omitted, Abs format (unit mm)*
G04 Created by KiCad (PCBNEW 9.0.1-9.0.1-0~ubuntu22.04.1) date 2025-06-21 17:42:36*
%MOMM*%
%LPD*%
G01*
G04 APERTURE LIST*
%ADD10C,4.300000*%
%ADD11C,2.200000*%
%ADD12C,0.800000*%
%ADD13R,1.700000X1.700000*%
%ADD14O,1.700000X1.700000*%
G04 APERTURE END LIST*
D10*
%TO.C,REF\u002A\u002A*%
X386000000Y14500000D03*
%TD*%
%TO.C,REF\u002A\u002A*%
X186000000Y14500000D03*
%TD*%
D11*
%TO.C,REF\u002A\u002A*%
X299126451Y7500000D03*
%TD*%
D12*
%TO.C,U7*%
X405950000Y13500000D03*
%TD*%
%TO.C,U5*%
X246950000Y13500000D03*
%TD*%
%TO.C,U4*%
X167450000Y13750000D03*
%TD*%
D11*
%TO.C,REF\u002A\u002A*%
X317500000Y3000000D03*
%TD*%
D13*
%TO.C,J1*%
X318438810Y15500000D03*
D14*
X318438810Y12960000D03*
X315898810Y15500000D03*
X315898810Y12960000D03*
X313358810Y15500000D03*
X313358810Y12960000D03*
X310818810Y15500000D03*
X310818810Y12960000D03*
X308278810Y15500000D03*
X308278810Y12960000D03*
X305738810Y15500000D03*
X305738810Y12960000D03*
X303198810Y15500000D03*
X303198810Y12960000D03*
X300658810Y15500000D03*
X300658810Y12960000D03*
X298118810Y15500000D03*
X298118810Y12960000D03*
X295578810Y15500000D03*
X295578810Y12960000D03*
X293038810Y15500000D03*
X293038810Y12960000D03*
X290498810Y15500000D03*
X290498810Y12960000D03*
X287958810Y15500000D03*
X287958810Y12960000D03*
X285418810Y15500000D03*
X285418810Y12960000D03*
X282878810Y15500000D03*
X282878810Y12960000D03*
X280338810Y15500000D03*
X280338810Y12960000D03*
X277798810Y15500000D03*
X277798810Y12960000D03*
X275258810Y15500000D03*
X275258810Y12960000D03*
X272718810Y15500000D03*
X272718810Y12960000D03*
X270178810Y15500000D03*
X270178810Y12960000D03*
%TD*%
D11*
%TO.C,REF\u002A\u002A*%
X254500000Y3000000D03*
%TD*%
D12*
%TO.C,U8*%
X485450000Y13000000D03*
%TD*%
%TO.C,U1*%
X8450000Y13500000D03*
%TD*%
%TO.C,U9*%
X564950000Y13500000D03*
%TD*%
D11*
%TO.C,REF\u002A\u002A*%
X272878324Y7500000D03*
%TD*%
D12*
%TO.C,U6*%
X326450000Y13500000D03*
%TD*%
%TO.C,U3*%
X87950000Y13500000D03*
%TD*%
M02*
