%TF.GenerationSoftware,KiCad,Pcbnew,9.0.1-9.0.1-0~ubuntu22.04.1*%
%TF.CreationDate,2025-06-21T17:42:36+02:00*%
%TF.ProjectId,recorder,7265636f-7264-4657-922e-6b696361645f,rev?*%
%TF.SameCoordinates,Original*%
%TF.FileFunction,Copper,L4,Bot*%
%TF.FilePolarity,Positive*%
%FSLAX46Y46*%
G04 Gerber Fmt 4.6, Leading zero omitted, Abs format (unit mm)*
G04 Created by KiCad (PCBNEW 9.0.1-9.0.1-0~ubuntu22.04.1) date 2025-06-21 17:42:36*
%MOMM*%
%LPD*%
G01*
G04 APERTURE LIST*
%TA.AperFunction,Conductor*%
%ADD10C,0.254000*%
%TD*%
%TA.AperFunction,ComponentPad*%
%ADD11R,1.700000X1.700000*%
%TD*%
%TA.AperFunction,ComponentPad*%
%ADD12O,1.700000X1.700000*%
%TD*%
%TA.AperFunction,ViaPad*%
%ADD13C,0.600000*%
%TD*%
%TA.AperFunction,Conductor*%
%ADD14C,0.508000*%
%TD*%
%TA.AperFunction,Conductor*%
%ADD15C,0.762000*%
%TD*%
G04 APERTURE END LIST*
D10*
%TO.N,/DAT3*%
X267250000Y3500000D02*
G75*
G02*
X266500000Y4250000I0J750000D01*
G01*
%TO.N,/DAT2*%
X442750000Y8500000D02*
G75*
G02*
X442750000Y7000000I0J-750000D01*
G01*
%TO.N,/DAT1*%
X264000000Y7750000D02*
G75*
G02*
X263250000Y7000000I-750000J0D01*
G01*
X204250000Y10500000D02*
G75*
G02*
X204250000Y9000000I0J-750000D01*
G01*
%TO.N,/DAT2*%
X364750000Y8500000D02*
G75*
G02*
X364750000Y10000000I0J750000D01*
G01*
%TO.N,/DAT0*%
X46750000Y5250000D02*
G75*
G02*
X46750000Y6750000I0J750000D01*
G01*
%TO.N,/DAT1*%
X126500000Y7000000D02*
G75*
G02*
X126500000Y9000000I0J1000000D01*
G01*
X162750000Y10500000D02*
G75*
G02*
X162000000Y11250000I0J750000D01*
G01*
%TO.N,/DAT2*%
X400500000Y10750000D02*
G75*
G02*
X399750000Y10000000I-750000J0D01*
G01*
%TO.N,/DAT3*%
X480750000Y6750000D02*
G75*
G02*
X480000000Y7500000I0J750000D01*
G01*
X523000000Y6000000D02*
G75*
G02*
X523750000Y6750000I750000J0D01*
G01*
%TO.N,/DAT0*%
X82500000Y7500000D02*
G75*
G02*
X81750000Y6750000I-750000J0D01*
G01*
X262500000Y6000000D02*
G75*
G02*
X261750000Y5250000I-750000J0D01*
G01*
X3750000Y6750000D02*
G75*
G02*
X3000000Y7500000I0J750000D01*
G01*
%TO.N,/DAT2*%
X321750000Y10000000D02*
G75*
G02*
X321000000Y10750000I0J750000D01*
G01*
%TO.N,/DAT3*%
X559500000Y7500000D02*
G75*
G02*
X558750000Y6750000I-750000J0D01*
G01*
X522250000Y6750000D02*
G75*
G02*
X522250000Y5250000I0J-750000D01*
G01*
%TO.N,/DAT1*%
X241500000Y11250000D02*
G75*
G02*
X240750000Y10500000I-750000J0D01*
G01*
%TO.N,/DAT0*%
X45250000Y6750000D02*
G75*
G02*
X46000000Y6000000I0J-750000D01*
G01*
%TO.N,/DAT2*%
X363250000Y10000000D02*
G75*
G02*
X364000000Y9250000I0J-750000D01*
G01*
%TO.N,/DAT1*%
X205000000Y9750000D02*
G75*
G02*
X205750000Y10500000I750000J0D01*
G01*
%TD*%
D11*
%TO.P,J1,1,3V3*%
%TO.N,/IOVDD*%
X318438810Y15500000D03*
D12*
%TO.P,J1,2,5V*%
%TO.N,unconnected-(J1-5V-Pad2)*%
X318438810Y12960000D03*
%TO.P,J1,3,I2C1_SDA*%
%TO.N,unconnected-(J1-I2C1_SDA-Pad3)*%
X315898810Y15500000D03*
%TO.P,J1,4,5V*%
%TO.N,unconnected-(J1-5V-Pad4)*%
X315898810Y12960000D03*
%TO.P,J1,5,I2C1_SCL*%
%TO.N,unconnected-(J1-I2C1_SCL-Pad5)*%
X313358810Y15500000D03*
%TO.P,J1,6,GND*%
%TO.N,GND*%
X313358810Y12960000D03*
%TO.P,J1,7,GPIO09*%
%TO.N,unconnected-(J1-GPIO09-Pad7)*%
X310818810Y15500000D03*
%TO.P,J1,8,UART1_TXD*%
%TO.N,unconnected-(J1-UART1_TXD-Pad8)*%
X310818810Y12960000D03*
%TO.P,J1,9,GND*%
%TO.N,unconnected-(J1-GND-Pad9)*%
X308278810Y15500000D03*
%TO.P,J1,10,UART1_RXD*%
%TO.N,unconnected-(J1-UART1_RXD-Pad10)*%
X308278810Y12960000D03*
%TO.P,J1,11,UART_RTS*%
%TO.N,unconnected-(J1-UART_RTS-Pad11)*%
X305738810Y15500000D03*
%TO.P,J1,12,I2S0_SCLK*%
%TO.N,/SCLK*%
X305738810Y12960000D03*
%TO.P,J1,13,SPI1_SCK*%
%TO.N,unconnected-(J1-SPI1_SCK-Pad13)*%
X303198810Y15500000D03*
%TO.P,J1,14,GND*%
%TO.N,unconnected-(J1-GND-Pad14)*%
X303198810Y12960000D03*
%TO.P,J1,15,GPIO12*%
%TO.N,unconnected-(J1-GPIO12-Pad15)*%
X300658810Y15500000D03*
%TO.P,J1,16,SPI1_CS1*%
%TO.N,unconnected-(J1-SPI1_CS1-Pad16)*%
X300658810Y12960000D03*
%TO.P,J1,17,3V3*%
%TO.N,unconnected-(J1-3V3-Pad17)*%
X298118810Y15500000D03*
%TO.P,J1,18,SPI1_CS0*%
%TO.N,unconnected-(J1-SPI1_CS0-Pad18)*%
X298118810Y12960000D03*
%TO.P,J1,19,SPI0_MOSI*%
%TO.N,unconnected-(J1-SPI0_MOSI-Pad19)*%
X295578810Y15500000D03*
%TO.P,J1,20,GND*%
%TO.N,unconnected-(J1-GND-Pad20)*%
X295578810Y12960000D03*
%TO.P,J1,21,SPI_MISO*%
%TO.N,unconnected-(J1-SPI_MISO-Pad21)*%
X293038810Y15500000D03*
%TO.P,J1,22,SPI1_MISO*%
%TO.N,unconnected-(J1-SPI1_MISO-Pad22)*%
X293038810Y12960000D03*
%TO.P,J1,23,SPI0_SCK*%
%TO.N,unconnected-(J1-SPI0_SCK-Pad23)*%
X290498810Y15500000D03*
%TO.P,J1,24,SPI0_CS0*%
%TO.N,unconnected-(J1-SPI0_CS0-Pad24)*%
X290498810Y12960000D03*
%TO.P,J1,25,GND*%
%TO.N,unconnected-(J1-GND-Pad25)*%
X287958810Y15500000D03*
%TO.P,J1,26,SPI0_CS1*%
%TO.N,unconnected-(J1-SPI0_CS1-Pad26)*%
X287958810Y12960000D03*
%TO.P,J1,27,I2C0_SDA*%
%TO.N,/SDA*%
X285418810Y15500000D03*
%TO.P,J1,28,I2C0_SCL*%
%TO.N,/SCL*%
X285418810Y12960000D03*
%TO.P,J1,29,GPIO01*%
%TO.N,unconnected-(J1-GPIO01-Pad29)*%
X282878810Y15500000D03*
%TO.P,J1,30,GND*%
%TO.N,unconnected-(J1-GND-Pad30)*%
X282878810Y12960000D03*
%TO.P,J1,31,GPIO11*%
%TO.N,unconnected-(J1-GPIO11-Pad31)*%
X280338810Y15500000D03*
%TO.P,J1,32,GPIO07*%
%TO.N,unconnected-(J1-GPIO07-Pad32)*%
X280338810Y12960000D03*
%TO.P,J1,33,GPIO13*%
%TO.N,unconnected-(J1-GPIO13-Pad33)*%
X277798810Y15500000D03*
%TO.P,J1,34,GND*%
%TO.N,unconnected-(J1-GND-Pad34)*%
X277798810Y12960000D03*
%TO.P,J1,35,I2S0_FS*%
%TO.N,/FS*%
X275258810Y15500000D03*
%TO.P,J1,36,UART1_CTS*%
%TO.N,unconnected-(J1-UART1_CTS-Pad36)*%
X275258810Y12960000D03*
%TO.P,J1,37,SPI1_MOSI*%
%TO.N,unconnected-(J1-SPI1_MOSI-Pad37)*%
X272718810Y15500000D03*
%TO.P,J1,38,I2S0_DIN*%
%TO.N,/DIN*%
X272718810Y12960000D03*
%TO.P,J1,39,GND*%
%TO.N,unconnected-(J1-GND-Pad39)*%
X270178810Y15500000D03*
%TO.P,J1,40,I2S0_DOUT*%
%TO.N,unconnected-(J1-I2S0_DOUT-Pad40)*%
X270178810Y12960000D03*
%TD*%
D13*
%TO.N,/IOVDD*%
X258469200Y12000000D03*
X255000000Y8750000D03*
%TO.N,/FS*%
X267100000Y17600000D03*
X264750000Y15250000D03*
%TO.N,/SCL*%
X265804377Y13695623D03*
%TO.N,/SDA*%
X265618796Y14473803D03*
%TO.N,/SCLK*%
X263563800Y15108835D03*
X267500000Y10500000D03*
%TO.N,/DAT0*%
X262500000Y6000000D03*
X82500000Y17000000D03*
X3000000Y17000000D03*
%TO.N,/DAT1*%
X241500000Y17000000D03*
X264000000Y7750000D03*
X162000000Y17250000D03*
%TO.N,/DAT2*%
X265250000Y10500000D03*
X321000000Y17000000D03*
X400500000Y17000000D03*
%TO.N,/DAT3*%
X480000000Y16500000D03*
X266500000Y8000000D03*
X559500000Y17000000D03*
%TD*%
D14*
%TO.N,/IOVDD*%
X258469200Y12000000D02*
X258250000Y12000000D01*
D15*
X314938810Y19000000D02*
X318438810Y15500000D01*
X264484600Y18015400D02*
X265469200Y19000000D01*
X263984600Y17515400D02*
X264484600Y18015400D01*
D14*
X258250000Y12000000D02*
X255000000Y8750000D01*
D15*
X265469200Y19000000D02*
X314938810Y19000000D01*
X258469200Y12000000D02*
X263984600Y17515400D01*
D10*
%TO.N,/FS*%
X267100000Y17600000D02*
X264750000Y15250000D01*
%TO.N,/SCL*%
X266724000Y13724000D02*
X267000000Y13448000D01*
X283458810Y11000000D02*
X285418810Y12960000D01*
X268500000Y11000000D02*
X283458810Y11000000D01*
X266500000Y13948000D02*
X266724000Y13724000D01*
X265804377Y13695623D02*
X266056754Y13948000D01*
X266056754Y13948000D02*
X266500000Y13948000D01*
X267000000Y13448000D02*
X267000000Y12500000D01*
X267000000Y12500000D02*
X268500000Y11000000D01*
%TO.N,/SDA*%
X268144993Y17000000D02*
X283918810Y17000000D01*
X265618796Y14381204D02*
X265651000Y14349000D01*
X265618796Y14473803D02*
X267072497Y15927503D01*
X283918810Y17000000D02*
X285418810Y15500000D01*
X265618796Y14473803D02*
X265618796Y14381204D01*
X267072497Y15927503D02*
X268144993Y17000000D01*
%TO.N,/SCLK*%
X264250000Y13750000D02*
X264250000Y14727600D01*
X267500000Y10500000D02*
X264250000Y13750000D01*
X263868765Y15108835D02*
X263563800Y15108835D01*
X264250000Y14727600D02*
X263868765Y15108835D01*
%TO.N,/DAT0*%
X46750000Y6750000D02*
X81750000Y6750000D01*
X3000000Y17000000D02*
X3000000Y7500000D01*
X261750000Y5250000D02*
X123458350Y5250000D01*
X83084570Y5250000D02*
X46750000Y5250000D01*
X83458350Y5250000D02*
X83084570Y5250000D01*
X45250000Y6750000D02*
X3750000Y6750000D01*
X82500000Y17000000D02*
X82500000Y7500000D01*
X119458350Y5250000D02*
G75*
G02*
X118458300Y6250000I-50J1000000D01*
G01*
X103458350Y5250000D02*
G75*
G02*
X102458300Y6250000I-50J1000000D01*
G01*
X99458350Y5250000D02*
G75*
G02*
X98458300Y6250000I-50J1000000D01*
G01*
X121458350Y7250000D02*
G75*
G03*
X120458300Y6250000I-50J-1000000D01*
G01*
X85458350Y7250000D02*
G75*
G03*
X84458300Y6250000I-50J-1000000D01*
G01*
X104458350Y6250000D02*
G75*
G02*
X103458350Y5250050I-999950J0D01*
G01*
X113458350Y7250000D02*
G75*
G03*
X112458300Y6250000I-50J-1000000D01*
G01*
X97458350Y7250000D02*
G75*
G03*
X96458300Y6250000I-50J-1000000D01*
G01*
X96458350Y6250000D02*
G75*
G02*
X95458350Y5250050I-999950J0D01*
G01*
X88458350Y6250000D02*
G75*
G02*
X87458350Y5250050I-999950J0D01*
G01*
X101458350Y7250000D02*
G75*
G03*
X100458300Y6250000I-50J-1000000D01*
G01*
X100458350Y6250000D02*
G75*
G02*
X99458350Y5250050I-999950J0D01*
G01*
X107458350Y5250000D02*
G75*
G02*
X106458300Y6250000I-50J1000000D01*
G01*
X86458350Y6250000D02*
G75*
G03*
X85458350Y7249950I-999950J0D01*
G01*
X112458350Y6250000D02*
G75*
G02*
X111458350Y5250050I-999950J0D01*
G01*
X122458350Y6250000D02*
G75*
G03*
X121458350Y7249950I-999950J0D01*
G01*
X117458350Y7250000D02*
G75*
G03*
X116458300Y6250000I-50J-1000000D01*
G01*
X98458350Y6250000D02*
G75*
G03*
X97458350Y7249950I-999950J0D01*
G01*
X91458350Y5250000D02*
G75*
G02*
X90458300Y6250000I-50J1000000D01*
G01*
X92458350Y6250000D02*
G75*
G02*
X91458350Y5250050I-999950J0D01*
G01*
X115458350Y5250000D02*
G75*
G02*
X114458300Y6250000I-50J1000000D01*
G01*
X110458350Y6250000D02*
G75*
G03*
X109458350Y7249950I-999950J0D01*
G01*
X108458350Y6250000D02*
G75*
G02*
X107458350Y5250050I-999950J0D01*
G01*
X111458350Y5250000D02*
G75*
G02*
X110458300Y6250000I-50J1000000D01*
G01*
X118458350Y6250000D02*
G75*
G03*
X117458350Y7249950I-999950J0D01*
G01*
X123458350Y5250000D02*
G75*
G02*
X122458300Y6250000I-50J1000000D01*
G01*
X95458350Y5250000D02*
G75*
G02*
X94458300Y6250000I-50J1000000D01*
G01*
X90458350Y6250000D02*
G75*
G03*
X89458350Y7249950I-999950J0D01*
G01*
X105458350Y7250000D02*
G75*
G03*
X104458300Y6250000I-50J-1000000D01*
G01*
X106458350Y6250000D02*
G75*
G03*
X105458350Y7249950I-999950J0D01*
G01*
X94458350Y6250000D02*
G75*
G03*
X93458350Y7249950I-999950J0D01*
G01*
X89458350Y7250000D02*
G75*
G03*
X88458300Y6250000I-50J-1000000D01*
G01*
X102458350Y6250000D02*
G75*
G03*
X101458350Y7249950I-999950J0D01*
G01*
X93458350Y7250000D02*
G75*
G03*
X92458300Y6250000I-50J-1000000D01*
G01*
X109458350Y7250000D02*
G75*
G03*
X108458300Y6250000I-50J-1000000D01*
G01*
X116458350Y6250000D02*
G75*
G02*
X115458350Y5250050I-999950J0D01*
G01*
X114458350Y6250000D02*
G75*
G03*
X113458350Y7249950I-999950J0D01*
G01*
X87458350Y5250000D02*
G75*
G02*
X86458300Y6250000I-50J1000000D01*
G01*
X84458350Y6250000D02*
G75*
G02*
X83458350Y5250050I-999950J0D01*
G01*
X120458350Y6250000D02*
G75*
G02*
X119458350Y5250050I-999950J0D01*
G01*
%TO.N,/DAT1*%
X241500000Y17000000D02*
X241500000Y11250000D01*
X206324266Y7000000D02*
X126500000Y7000000D01*
X126500000Y9000000D02*
X204250000Y9000000D01*
X162000000Y17250000D02*
X162000000Y11250000D01*
X205750000Y10500000D02*
X240750000Y10500000D01*
X263250000Y7000000D02*
X262869450Y7000000D01*
X204250000Y10500000D02*
X162750000Y10500000D01*
X206869450Y7000000D02*
X206324266Y7000000D01*
X248869450Y9000000D02*
G75*
G03*
X247869400Y8000000I-50J-1000000D01*
G01*
X246869450Y7000000D02*
G75*
G02*
X245869400Y8000000I-50J1000000D01*
G01*
X237869450Y8000000D02*
G75*
G03*
X236869450Y8999950I-999950J0D01*
G01*
X231869450Y8000000D02*
G75*
G02*
X230869450Y7000050I-999950J0D01*
G01*
X244869450Y9000000D02*
G75*
G03*
X243869400Y8000000I-50J-1000000D01*
G01*
X251869450Y8000000D02*
G75*
G02*
X250869450Y7000050I-999950J0D01*
G01*
X239869450Y8000000D02*
G75*
G02*
X238869450Y7000050I-999950J0D01*
G01*
X225869450Y8000000D02*
G75*
G03*
X224869450Y8999950I-999950J0D01*
G01*
X261869450Y8000000D02*
G75*
G03*
X260869450Y8999950I-999950J0D01*
G01*
X230869450Y7000000D02*
G75*
G02*
X229869400Y8000000I-50J1000000D01*
G01*
X215869450Y8000000D02*
G75*
G02*
X214869450Y7000050I-999950J0D01*
G01*
X256869450Y9000000D02*
G75*
G03*
X255869400Y8000000I-50J-1000000D01*
G01*
X234869450Y7000000D02*
G75*
G02*
X233869400Y8000000I-50J1000000D01*
G01*
X222869450Y7000000D02*
G75*
G02*
X221869400Y8000000I-50J1000000D01*
G01*
X218869450Y7000000D02*
G75*
G02*
X217869400Y8000000I-50J1000000D01*
G01*
X213869450Y8000000D02*
G75*
G03*
X212869450Y8999950I-999950J0D01*
G01*
X223869450Y8000000D02*
G75*
G02*
X222869450Y7000050I-999950J0D01*
G01*
X250869450Y7000000D02*
G75*
G02*
X249869400Y8000000I-50J1000000D01*
G01*
X220869450Y9000000D02*
G75*
G03*
X219869400Y8000000I-50J-1000000D01*
G01*
X208869450Y9000000D02*
G75*
G03*
X207869400Y8000000I-50J-1000000D01*
G01*
X249869450Y8000000D02*
G75*
G03*
X248869450Y8999950I-999950J0D01*
G01*
X228869450Y9000000D02*
G75*
G03*
X227869400Y8000000I-50J-1000000D01*
G01*
X219869450Y8000000D02*
G75*
G02*
X218869450Y7000050I-999950J0D01*
G01*
X253869450Y8000000D02*
G75*
G03*
X252869450Y8999950I-999950J0D01*
G01*
X235869450Y8000000D02*
G75*
G02*
X234869450Y7000050I-999950J0D01*
G01*
X214869450Y7000000D02*
G75*
G02*
X213869400Y8000000I-50J1000000D01*
G01*
X221869450Y8000000D02*
G75*
G03*
X220869450Y8999950I-999950J0D01*
G01*
X240869450Y9000000D02*
G75*
G03*
X239869400Y8000000I-50J-1000000D01*
G01*
X247869450Y8000000D02*
G75*
G02*
X246869450Y7000050I-999950J0D01*
G01*
X210869450Y7000000D02*
G75*
G02*
X209869400Y8000000I-50J1000000D01*
G01*
X259869450Y8000000D02*
G75*
G02*
X258869450Y7000050I-999950J0D01*
G01*
X224869450Y9000000D02*
G75*
G03*
X223869400Y8000000I-50J-1000000D01*
G01*
X254869450Y7000000D02*
G75*
G02*
X253869400Y8000000I-50J1000000D01*
G01*
X216869450Y9000000D02*
G75*
G03*
X215869400Y8000000I-50J-1000000D01*
G01*
X207869450Y8000000D02*
G75*
G02*
X206869450Y7000050I-999950J0D01*
G01*
X242869450Y7000000D02*
G75*
G02*
X241869400Y8000000I-50J1000000D01*
G01*
X226869450Y7000000D02*
G75*
G02*
X225869400Y8000000I-50J1000000D01*
G01*
X258869450Y7000000D02*
G75*
G02*
X257869400Y8000000I-50J1000000D01*
G01*
X233869450Y8000000D02*
G75*
G03*
X232869450Y8999950I-999950J0D01*
G01*
X238869450Y7000000D02*
G75*
G02*
X237869400Y8000000I-50J1000000D01*
G01*
X232869450Y9000000D02*
G75*
G03*
X231869400Y8000000I-50J-1000000D01*
G01*
X211869450Y8000000D02*
G75*
G02*
X210869450Y7000050I-999950J0D01*
G01*
X260869450Y9000000D02*
G75*
G03*
X259869400Y8000000I-50J-1000000D01*
G01*
X241869450Y8000000D02*
G75*
G03*
X240869450Y8999950I-999950J0D01*
G01*
X245869450Y8000000D02*
G75*
G03*
X244869450Y8999950I-999950J0D01*
G01*
X229869450Y8000000D02*
G75*
G03*
X228869450Y8999950I-999950J0D01*
G01*
X262869450Y7000000D02*
G75*
G02*
X261869400Y8000000I-50J1000000D01*
G01*
X227869450Y8000000D02*
G75*
G02*
X226869450Y7000050I-999950J0D01*
G01*
X243869450Y8000000D02*
G75*
G02*
X242869450Y7000050I-999950J0D01*
G01*
X255869450Y8000000D02*
G75*
G02*
X254869450Y7000050I-999950J0D01*
G01*
X209869450Y8000000D02*
G75*
G03*
X208869450Y8999950I-999950J0D01*
G01*
X257869450Y8000000D02*
G75*
G03*
X256869450Y8999950I-999950J0D01*
G01*
X236869450Y9000000D02*
G75*
G03*
X235869400Y8000000I-50J-1000000D01*
G01*
X217869450Y8000000D02*
G75*
G03*
X216869450Y8999950I-999950J0D01*
G01*
X252869450Y9000000D02*
G75*
G03*
X251869400Y8000000I-50J-1000000D01*
G01*
X212869450Y9000000D02*
G75*
G03*
X211869400Y8000000I-50J-1000000D01*
G01*
%TO.N,/DAT2*%
X307750000Y7000000D02*
X442750000Y7000000D01*
X321000000Y17000000D02*
X321000000Y10750000D01*
X364750000Y10000000D02*
X399750000Y10000000D01*
X400500000Y17000000D02*
X400500000Y10750000D01*
X442750000Y8500000D02*
X364750000Y8500000D01*
X270500000Y5250000D02*
X306000000Y5250000D01*
X265250000Y10500000D02*
X270500000Y5250000D01*
X363250000Y10000000D02*
X321750000Y10000000D01*
X306000000Y5250000D02*
X307750000Y7000000D01*
%TO.N,/DAT3*%
X559500000Y17000000D02*
X559500000Y7500000D01*
X266500000Y4250000D02*
X266500000Y8000000D01*
X267250000Y3500000D02*
X306750000Y3500000D01*
X522250000Y6750000D02*
X480750000Y6750000D01*
X306750000Y3500000D02*
X308500000Y5250000D01*
X480000000Y16500000D02*
X480000000Y7500000D01*
X308500000Y5250000D02*
X522250000Y5250000D01*
X523750000Y6750000D02*
X558750000Y6750000D01*
%TD*%
M02*
