%TF.GenerationSoftware,KiCad,Pcbnew,9.0.1-9.0.1-0~ubuntu22.04.1*%
%TF.CreationDate,2025-06-21T17:42:36+02:00*%
%TF.ProjectId,recorder,7265636f-7264-4657-922e-6b696361645f,rev?*%
%TF.SameCoordinates,Original*%
%TF.FileFunction,Copper,L2,Inr*%
%TF.FilePolarity,Positive*%
%FSLAX46Y46*%
G04 Gerber Fmt 4.6, Leading zero omitted, Abs format (unit mm)*
G04 Created by KiCad (PCBNEW 9.0.1-9.0.1-0~ubuntu22.04.1) date 2025-06-21 17:42:36*
%MOMM*%
%LPD*%
G01*
G04 APERTURE LIST*
%TA.AperFunction,ComponentPad*%
%ADD10R,1.700000X1.700000*%
%TD*%
%TA.AperFunction,ComponentPad*%
%ADD11O,1.700000X1.700000*%
%TD*%
%TA.AperFunction,ViaPad*%
%ADD12C,0.600000*%
%TD*%
%TA.AperFunction,Conductor*%
%ADD13C,0.254000*%
%TD*%
G04 APERTURE END LIST*
D10*
%TO.N,/IOVDD*%
%TO.C,J1*%
X318438810Y15500000D03*
D11*
%TO.N,unconnected-(J1-5V-Pad2)*%
X318438810Y12960000D03*
%TO.N,unconnected-(J1-I2C1_SDA-Pad3)*%
X315898810Y15500000D03*
%TO.N,unconnected-(J1-5V-Pad4)*%
X315898810Y12960000D03*
%TO.N,unconnected-(J1-I2C1_SCL-Pad5)*%
X313358810Y15500000D03*
%TO.N,GND*%
X313358810Y12960000D03*
%TO.N,unconnected-(J1-GPIO09-Pad7)*%
X310818810Y15500000D03*
%TO.N,unconnected-(J1-UART1_TXD-Pad8)*%
X310818810Y12960000D03*
%TO.N,unconnected-(J1-GND-Pad9)*%
X308278810Y15500000D03*
%TO.N,unconnected-(J1-UART1_RXD-Pad10)*%
X308278810Y12960000D03*
%TO.N,unconnected-(J1-UART_RTS-Pad11)*%
X305738810Y15500000D03*
%TO.N,/SCLK*%
X305738810Y12960000D03*
%TO.N,unconnected-(J1-SPI1_SCK-Pad13)*%
X303198810Y15500000D03*
%TO.N,unconnected-(J1-GND-Pad14)*%
X303198810Y12960000D03*
%TO.N,unconnected-(J1-GPIO12-Pad15)*%
X300658810Y15500000D03*
%TO.N,unconnected-(J1-SPI1_CS1-Pad16)*%
X300658810Y12960000D03*
%TO.N,unconnected-(J1-3V3-Pad17)*%
X298118810Y15500000D03*
%TO.N,unconnected-(J1-SPI1_CS0-Pad18)*%
X298118810Y12960000D03*
%TO.N,unconnected-(J1-SPI0_MOSI-Pad19)*%
X295578810Y15500000D03*
%TO.N,unconnected-(J1-GND-Pad20)*%
X295578810Y12960000D03*
%TO.N,unconnected-(J1-SPI_MISO-Pad21)*%
X293038810Y15500000D03*
%TO.N,unconnected-(J1-SPI1_MISO-Pad22)*%
X293038810Y12960000D03*
%TO.N,unconnected-(J1-SPI0_SCK-Pad23)*%
X290498810Y15500000D03*
%TO.N,unconnected-(J1-SPI0_CS0-Pad24)*%
X290498810Y12960000D03*
%TO.N,unconnected-(J1-GND-Pad25)*%
X287958810Y15500000D03*
%TO.N,unconnected-(J1-SPI0_CS1-Pad26)*%
X287958810Y12960000D03*
%TO.N,/SDA*%
X285418810Y15500000D03*
%TO.N,/SCL*%
X285418810Y12960000D03*
%TO.N,unconnected-(J1-GPIO01-Pad29)*%
X282878810Y15500000D03*
%TO.N,unconnected-(J1-GND-Pad30)*%
X282878810Y12960000D03*
%TO.N,unconnected-(J1-GPIO11-Pad31)*%
X280338810Y15500000D03*
%TO.N,unconnected-(J1-GPIO07-Pad32)*%
X280338810Y12960000D03*
%TO.N,unconnected-(J1-GPIO13-Pad33)*%
X277798810Y15500000D03*
%TO.N,unconnected-(J1-GND-Pad34)*%
X277798810Y12960000D03*
%TO.N,/FS*%
X275258810Y15500000D03*
%TO.N,unconnected-(J1-UART1_CTS-Pad36)*%
X275258810Y12960000D03*
%TO.N,unconnected-(J1-SPI1_MOSI-Pad37)*%
X272718810Y15500000D03*
%TO.N,/DIN*%
X272718810Y12960000D03*
%TO.N,unconnected-(J1-GND-Pad39)*%
X270178810Y15500000D03*
%TO.N,unconnected-(J1-I2S0_DOUT-Pad40)*%
X270178810Y12960000D03*
%TD*%
D12*
%TO.N,GND*%
X11000000Y13500000D03*
X563500000Y10750000D03*
X328000000Y17000000D03*
X258969200Y11000000D03*
X263163800Y12750000D03*
X487000000Y16500001D03*
X251969200Y11000000D03*
X254500000Y14000000D03*
X567500000Y13500000D03*
X251469200Y18000000D03*
X10000000Y17000000D03*
X408500000Y13500000D03*
X170000000Y13750000D03*
X86500000Y10750000D03*
X257969200Y11000000D03*
X248500000Y17000000D03*
X260019200Y15950000D03*
X566500000Y17000000D03*
X262500000Y17500000D03*
X329000000Y13500000D03*
X407500000Y17000000D03*
X250669200Y12700000D03*
X89500000Y17000001D03*
X250619199Y14649999D03*
X488000000Y13000000D03*
X245500000Y10750000D03*
X404500000Y10750000D03*
X249500000Y13500000D03*
X90500000Y13500000D03*
X169000000Y17250000D03*
%TO.N,/DVDD*%
X563750000Y18000000D03*
X260907282Y13968742D03*
X166000000Y11000000D03*
X255750000Y18250000D03*
X404750000Y18000000D03*
X86750000Y18000000D03*
X166250000Y18250000D03*
X325250000Y18000000D03*
X7261625Y17988375D03*
X325000000Y10750000D03*
X484000000Y10250000D03*
X245750000Y18000000D03*
X7000000Y10750000D03*
X484250000Y17500000D03*
%TO.N,/IOVDD*%
X258469200Y12000000D03*
X255000000Y8750000D03*
%TO.N,/FS*%
X267100000Y17600000D03*
X264750000Y15250000D03*
%TO.N,/SCL*%
X265804377Y13695623D03*
%TO.N,/SDA*%
X265618796Y14473803D03*
%TO.N,/SCLK*%
X263563800Y15108835D03*
X267500000Y10500000D03*
%TO.N,/DAT0*%
X262500000Y6000000D03*
X82500000Y17000000D03*
X3000000Y17000000D03*
%TO.N,/DAT1*%
X241500000Y17000000D03*
X264000000Y7750000D03*
X162000000Y17250000D03*
%TO.N,/DAT2*%
X265250000Y10500000D03*
X321000000Y17000000D03*
X400500000Y17000000D03*
%TO.N,/DAT3*%
X480000000Y16500000D03*
X266500000Y8000000D03*
X559500000Y17000000D03*
%TD*%
D13*
%TO.N,GND*%
X313358810Y12960000D02*
X313358810Y12858810D01*
X313358810Y12858810D02*
X312000000Y11500000D01*
X314818810Y11500000D02*
X313358810Y12960000D01*
%TD*%
M02*
