M48
; DRILL file {KiCad 9.0.1-9.0.1-0~ubuntu22.04.1} date 2025-06-21T17:42:36+0200
; FORMAT={-:-/ absolute / inch / decimal}
; #@! TF.CreationDate,2025-06-21T17:42:36+02:00
; #@! TF.GenerationSoftware,Kicad,Pcbnew,9.0.1-9.0.1-0~ubuntu22.04.1
; #@! TF.FileFunction,Plated,1,4,PTH
FMAT,2
INCH
; #@! TA.AperFunction,Plated,PTH,ViaDrill
T1C0.0118
; #@! TA.AperFunction,Plated,PTH,ComponentDrill
T2C0.0394
%
G90
G05
T1
X0.1181Y0.6693
X3.248Y0.6693
X6.378Y0.6791
X9.5079Y0.6693
X10.0394Y0.3445
X10.176Y0.4724
X10.3346Y0.2362
X10.3765Y0.5948
X10.3937Y0.3051
X10.4232Y0.6004
X10.4429Y0.4134
X10.4574Y0.5698
X10.4647Y0.5392
X10.4921Y0.315
X10.5157Y0.6929
X10.5315Y0.4134
X12.6378Y0.6693
X15.7677Y0.6693
X18.8976Y0.6496
X22.0276Y0.6693
T2
X10.637Y0.6102
X10.637Y0.5102
X10.737Y0.6102
X10.737Y0.5102
X10.837Y0.6102
X10.837Y0.5102
X10.937Y0.6102
X10.937Y0.5102
X11.037Y0.6102
X11.037Y0.5102
X11.137Y0.6102
X11.137Y0.5102
X11.237Y0.6102
X11.237Y0.5102
X11.337Y0.6102
X11.337Y0.5102
X11.437Y0.6102
X11.437Y0.5102
X11.537Y0.6102
X11.537Y0.5102
X11.637Y0.6102
X11.637Y0.5102
X11.737Y0.6102
X11.737Y0.5102
X11.837Y0.6102
X11.837Y0.5102
X11.937Y0.6102
X11.937Y0.5102
X12.037Y0.6102
X12.037Y0.5102
X12.137Y0.6102
X12.137Y0.5102
X12.237Y0.6102
X12.237Y0.5102
X12.337Y0.6102
X12.337Y0.5102
X12.437Y0.6102
X12.437Y0.5102
X12.537Y0.6102
X12.537Y0.5102
M30
